<svg width="277" height="103" viewBox="0 0 277 103" fill="none" xmlns="http://www.w3.org/2000/svg">
<g filter="url(#filter0_d_2_5425)">
<path d="M252.377 87.8906H21.6232C17.4162 87.8906 14 84.4795 14 80.2673V23.0441C14 18.8371 17.4111 15.4209 21.6232 15.4209H252.377C256.584 15.4209 260 18.832 260 23.0441V80.2673C260 84.4743 256.584 87.8906 252.377 87.8906Z" fill="#1B57ED"/>
</g>
<path d="M106.913 68.8215H110.442L106.494 47.8852H102.127L98.2393 68.8215H101.589L102.337 64.1557H106.165L106.913 68.8215ZM102.785 61.2845L104.251 51.9827L105.717 61.2845H102.785ZM117.585 47.8852H112.172V68.8215H115.641V60.7162H117.585C120.756 60.7162 122.849 59.46 122.849 56.2896V52.3117C122.849 49.1414 120.756 47.8852 117.585 47.8852ZM119.38 55.7513C119.38 57.2467 118.602 57.6655 117.466 57.6655H115.641V50.9359H117.466C118.602 50.9359 119.38 51.3546 119.38 52.8501V55.7513ZM130.466 47.8852H125.053V68.8215H128.522V60.7162H130.466C133.636 60.7162 135.73 59.46 135.73 56.2896V52.3117C135.73 49.1414 133.636 47.8852 130.466 47.8852ZM132.261 55.7513C132.261 57.2467 131.483 57.6655 130.346 57.6655H128.522V50.9359H130.346C131.483 50.9359 132.261 51.3546 132.261 52.8501V55.7513ZM152.653 55.3625V51.9528C152.653 48.8423 150.38 47.6459 147.509 47.6459H147.449C144.578 47.6459 142.305 48.8423 142.305 51.9528V54.7045C142.305 56.8878 143.471 57.8449 145.505 59.0114L147.928 60.3872C148.974 60.9555 149.303 61.4938 149.303 62.5705V64.2155C149.303 65.5016 148.556 66.0699 147.509 66.0699C146.462 66.0699 145.714 65.5016 145.714 64.2155V61.0452H142.305V64.6941C142.305 67.9542 144.309 69.0608 147.479 69.0608H147.539C150.709 69.0608 152.713 67.9243 152.713 64.6941V61.6733C152.713 59.4301 151.517 58.5029 149.513 57.3664L147.06 55.9905C146.073 55.4223 145.714 54.9437 145.714 53.867V52.4314C145.714 51.1154 146.462 50.6368 147.479 50.6368C148.496 50.6368 149.244 51.1154 149.244 52.4314V55.3625H152.653ZM164.379 47.8852H153.911V50.9359H157.411V68.8215H160.88V50.9359H164.379V47.8852ZM165.941 52.0725V64.6343C165.941 67.8046 168.035 69.0608 171.205 69.0608H171.444C174.615 69.0608 176.708 67.8046 176.708 64.6343V52.0725C176.708 48.9021 174.615 47.6459 171.444 47.6459H171.205C168.035 47.6459 165.941 48.8722 165.941 52.0725ZM169.41 64.0959V52.6108C169.41 51.1154 170.188 50.6966 171.325 50.6966C172.461 50.6966 173.239 51.1154 173.239 52.6108V64.0959C173.239 65.5914 172.461 66.0101 171.325 66.0101C170.188 66.0101 169.41 65.5914 169.41 64.0959ZM190.979 68.8215L187.988 59.9385C189.424 59.3105 190.261 58.0543 190.261 56.0504V52.3117C190.261 49.1414 188.168 47.8852 184.998 47.8852H179.584V68.8215H183.053V60.4769H184.788L187.45 68.8215H190.979ZM183.053 50.9359H184.878C186.014 50.9359 186.792 51.3546 186.792 52.8501V55.5718C186.792 57.0673 186.014 57.486 184.878 57.486H183.053V50.9359ZM202.35 68.8215V65.7708H196.548V59.7292H201.333V56.6785H196.548V50.9359H202.26V47.8852H193.078V68.8215H202.35Z" fill="white"/>
<path d="M110.051 39.0069C110.444 39.0069 110.768 38.966 111.021 38.8843C111.472 38.7324 111.842 38.4403 112.131 38.008C112.36 37.6614 112.526 37.2174 112.627 36.6761C112.686 36.3529 112.715 36.053 112.715 35.7765C112.715 34.7133 112.502 33.8877 112.078 33.2997C111.657 32.7116 110.978 32.4176 110.039 32.4176H107.977V39.0069H110.051ZM106.809 31.4187H110.285C111.465 31.4187 112.38 31.8373 113.03 32.6746C113.61 33.4301 113.901 34.3979 113.901 35.5779C113.901 36.4892 113.729 37.3129 113.387 38.0489C112.783 39.3496 111.745 40 110.273 40H106.809V31.4187ZM117.744 39.3224C118.441 39.3224 118.919 39.0595 119.176 38.5338C119.436 38.0041 119.567 37.4161 119.567 36.7696C119.567 36.1854 119.473 35.7103 119.287 35.3442C118.991 34.7679 118.48 34.4797 117.756 34.4797C117.113 34.4797 116.646 34.725 116.354 35.2157C116.062 35.7064 115.916 36.2984 115.916 36.9916C115.916 37.6575 116.062 38.2125 116.354 38.6564C116.646 39.1004 117.11 39.3224 117.744 39.3224ZM117.785 33.5625C118.591 33.5625 119.273 33.8313 119.83 34.3687C120.387 34.9061 120.665 35.6967 120.665 36.7404C120.665 37.749 120.42 38.5824 119.929 39.2406C119.438 39.8987 118.677 40.2278 117.645 40.2278C116.784 40.2278 116.101 39.9377 115.595 39.3574C115.088 38.7733 114.835 37.9905 114.835 37.0091C114.835 35.9576 115.102 35.1203 115.636 34.4972C116.169 33.8741 116.886 33.5625 117.785 33.5625ZM122.406 33.7436L123.609 38.674L124.83 33.7436H126.01L127.237 38.6447L128.516 33.7436H129.568L127.751 40H126.659L125.385 35.1573L124.153 40H123.06L121.255 33.7436H122.406ZM130.567 33.7436H131.566V34.6316C131.862 34.2655 132.175 34.0026 132.506 33.8429C132.837 33.6833 133.205 33.6034 133.61 33.6034C134.498 33.6034 135.098 33.913 135.409 34.5323C135.581 34.8711 135.666 35.3559 135.666 35.9868V40H134.597V36.0569C134.597 35.6753 134.541 35.3676 134.428 35.1339C134.241 34.7445 133.902 34.5498 133.412 34.5498C133.162 34.5498 132.958 34.5751 132.798 34.6257C132.51 34.7114 132.257 34.8827 132.039 35.1398C131.864 35.3462 131.749 35.5604 131.694 35.7824C131.644 36.0004 131.618 36.3139 131.618 36.7229V40H130.567V33.7436ZM137.255 31.4187H138.307V40H137.255V31.4187ZM142.373 39.3224C143.07 39.3224 143.547 39.0595 143.804 38.5338C144.065 38.0041 144.195 37.4161 144.195 36.7696C144.195 36.1854 144.102 35.7103 143.915 35.3442C143.619 34.7679 143.109 34.4797 142.384 34.4797C141.742 34.4797 141.274 34.725 140.982 35.2157C140.69 35.7064 140.544 36.2984 140.544 36.9916C140.544 37.6575 140.69 38.2125 140.982 38.6564C141.274 39.1004 141.738 39.3224 142.373 39.3224ZM142.413 33.5625C143.22 33.5625 143.901 33.8313 144.458 34.3687C145.015 34.9061 145.293 35.6967 145.293 36.7404C145.293 37.749 145.048 38.5824 144.557 39.2406C144.067 39.8987 143.305 40.2278 142.273 40.2278C141.413 40.2278 140.729 39.9377 140.223 39.3574C139.717 38.7733 139.463 37.9905 139.463 37.0091C139.463 35.9576 139.73 35.1203 140.264 34.4972C140.797 33.8741 141.514 33.5625 142.413 33.5625ZM147.355 38.3351C147.355 38.6389 147.466 38.8784 147.688 39.0537C147.91 39.2289 148.173 39.3165 148.477 39.3165C148.847 39.3165 149.205 39.2309 149.552 39.0595C150.136 38.7752 150.428 38.3098 150.428 37.6634V36.8163C150.3 36.8981 150.134 36.9663 149.932 37.0208C149.729 37.0753 149.531 37.1142 149.336 37.1376L148.699 37.2194C148.317 37.27 148.031 37.3499 147.84 37.4589C147.517 37.6419 147.355 37.934 147.355 38.3351ZM149.902 36.2088C150.144 36.1776 150.306 36.0764 150.387 35.905C150.434 35.8116 150.457 35.6772 150.457 35.502C150.457 35.1437 150.329 34.8847 150.072 34.725C149.819 34.5615 149.455 34.4797 148.979 34.4797C148.43 34.4797 148.041 34.6277 147.811 34.9236C147.683 35.0872 147.599 35.3306 147.56 35.6538H146.579C146.598 34.8827 146.847 34.3473 147.326 34.0474C147.809 33.7436 148.368 33.5918 149.003 33.5918C149.739 33.5918 150.337 33.7319 150.796 34.0123C151.252 34.2927 151.48 34.7289 151.48 35.3209V38.9251C151.48 39.0342 151.501 39.1218 151.544 39.188C151.591 39.2542 151.686 39.2873 151.83 39.2873C151.877 39.2873 151.929 39.2854 151.988 39.2815C152.046 39.2737 152.109 39.264 152.175 39.2523V40.0292C152.011 40.0759 151.887 40.1051 151.801 40.1168C151.715 40.1285 151.598 40.1344 151.45 40.1344C151.088 40.1344 150.825 40.0058 150.662 39.7488C150.576 39.6125 150.516 39.4197 150.481 39.1705C150.267 39.4509 149.959 39.6943 149.558 39.9007C149.157 40.1071 148.715 40.2103 148.232 40.2103C147.651 40.2103 147.176 40.035 146.806 39.6846C146.44 39.3302 146.257 38.8881 146.257 38.3585C146.257 37.7782 146.438 37.3284 146.801 37.0091C147.163 36.6898 147.638 36.4931 148.226 36.4191L149.902 36.2088ZM153.875 36.9448C153.875 37.6147 154.017 38.1755 154.301 38.6272C154.585 39.079 155.041 39.3048 155.668 39.3048C156.155 39.3048 156.554 39.0965 156.866 38.6798C157.181 38.2592 157.339 37.6575 157.339 36.8747C157.339 36.0842 157.177 35.5 156.854 35.1223C156.531 34.7406 156.132 34.5498 155.656 34.5498C155.127 34.5498 154.696 34.7523 154.365 35.1573C154.038 35.5623 153.875 36.1582 153.875 36.9448ZM155.458 33.6326C155.937 33.6326 156.338 33.7339 156.661 33.9364C156.848 34.0532 157.06 34.2577 157.298 34.5498V31.3895H158.309V40H157.362V39.1296C157.117 39.5151 156.827 39.7936 156.492 39.965C156.157 40.1363 155.773 40.222 155.341 40.222C154.644 40.222 154.04 39.9299 153.53 39.3457C153.02 38.7577 152.765 37.9769 152.765 37.0033C152.765 36.092 152.997 35.3033 153.46 34.6374C153.927 33.9676 154.593 33.6326 155.458 33.6326ZM165.681 39.3224C166.378 39.3224 166.855 39.0595 167.112 38.5338C167.373 38.0041 167.503 37.4161 167.503 36.7696C167.503 36.1854 167.41 35.7103 167.223 35.3442C166.927 34.7679 166.417 34.4797 165.692 34.4797C165.05 34.4797 164.582 34.725 164.29 35.2157C163.998 35.7064 163.852 36.2984 163.852 36.9916C163.852 37.6575 163.998 38.2125 164.29 38.6564C164.582 39.1004 165.046 39.3224 165.681 39.3224ZM165.722 33.5625C166.528 33.5625 167.209 33.8313 167.766 34.3687C168.323 34.9061 168.601 35.6967 168.601 36.7404C168.601 37.749 168.356 38.5824 167.865 39.2406C167.375 39.8987 166.613 40.2278 165.581 40.2278C164.721 40.2278 164.037 39.9377 163.531 39.3574C163.025 38.7733 162.772 37.9905 162.772 37.0091C162.772 35.9576 163.038 35.1203 163.572 34.4972C164.105 33.8741 164.822 33.5625 165.722 33.5625ZM169.857 33.7436H170.856V34.6316C171.152 34.2655 171.466 34.0026 171.797 33.8429C172.128 33.6833 172.496 33.6034 172.901 33.6034C173.789 33.6034 174.389 33.913 174.7 34.5323C174.871 34.8711 174.957 35.3559 174.957 35.9868V40H173.888V36.0569C173.888 35.6753 173.832 35.3676 173.719 35.1339C173.532 34.7445 173.193 34.5498 172.702 34.5498C172.453 34.5498 172.249 34.5751 172.089 34.6257C171.801 34.7114 171.548 34.8827 171.329 35.1398C171.154 35.3462 171.039 35.5604 170.985 35.7824C170.934 36.0004 170.909 36.3139 170.909 36.7229V40H169.857V33.7436ZM180.057 31.997H181.12V33.7436H182.119V34.6024H181.12V38.6856C181.12 38.9037 181.194 39.0498 181.342 39.1238C181.424 39.1666 181.56 39.188 181.751 39.188C181.802 39.188 181.856 39.188 181.914 39.188C181.973 39.1841 182.041 39.1783 182.119 39.1705V40C181.998 40.035 181.872 40.0604 181.739 40.0759C181.611 40.0915 181.471 40.0993 181.319 40.0993C180.828 40.0993 180.495 39.9747 180.32 39.7254C180.144 39.4723 180.057 39.1452 180.057 38.7441V34.6024H179.21V33.7436H180.057V31.997ZM183.176 31.3895H184.228V34.5907C184.477 34.2752 184.701 34.0532 184.9 33.9247C185.238 33.7027 185.661 33.5918 186.167 33.5918C187.075 33.5918 187.69 33.9091 188.013 34.5439C188.188 34.8905 188.276 35.3715 188.276 35.9868V40H187.195V36.0569C187.195 35.5974 187.137 35.2605 187.02 35.0463C186.829 34.7036 186.471 34.5323 185.945 34.5323C185.509 34.5323 185.114 34.6822 184.759 34.9821C184.405 35.2819 184.228 35.8486 184.228 36.682V40H183.176V31.3895ZM192.441 33.6034C192.885 33.6034 193.315 33.7086 193.732 33.9189C194.149 34.1253 194.466 34.394 194.684 34.725C194.895 35.0405 195.035 35.4085 195.105 35.8291C195.167 36.1173 195.198 36.5768 195.198 37.2077H190.613C190.632 37.8425 190.782 38.3527 191.062 38.7382C191.343 39.1199 191.777 39.3107 192.365 39.3107C192.914 39.3107 193.352 39.1296 193.679 38.7674C193.866 38.5571 193.999 38.3137 194.077 38.0372H195.111C195.083 38.267 194.992 38.524 194.836 38.8083C194.684 39.0887 194.513 39.3185 194.322 39.4976C194.003 39.8092 193.607 40.0195 193.136 40.1285C192.883 40.1908 192.597 40.222 192.278 40.222C191.499 40.222 190.839 39.9396 190.297 39.3749C189.756 38.8064 189.485 38.0119 189.485 36.9916C189.485 35.9868 189.758 35.1709 190.303 34.5439C190.848 33.9169 191.561 33.6034 192.441 33.6034ZM194.118 36.3724C194.075 35.9167 193.975 35.5526 193.82 35.28C193.531 34.7737 193.051 34.5206 192.377 34.5206C191.894 34.5206 191.489 34.6958 191.162 35.0463C190.835 35.3929 190.661 35.8349 190.642 36.3724H194.118Z" fill="white"/>
<path d="M66.7475 73.342H49.4854C46.7618 73.342 44.5497 71.0472 44.5497 68.2305V35.0864C44.5497 32.2645 46.7618 29.9749 49.4854 29.9749H66.7475C69.4712 29.9749 71.6832 32.2696 71.6832 35.0864V68.2305C71.6832 71.0472 69.4712 73.342 66.7475 73.342ZM49.4854 33.0655C48.4104 33.0655 47.5422 33.97 47.5422 35.0812V68.2253C47.5422 69.3365 48.4156 70.241 49.4854 70.241H66.7475C67.8225 70.241 68.6908 69.3365 68.6908 68.2253V35.0812C68.6908 33.97 67.8174 33.0655 66.7475 33.0655H49.4854Z" fill="white"/>
<defs>
<filter id="filter0_d_2_5425" x="0.540925" y="0.466371" width="275.909" height="102.379" filterUnits="userSpaceOnUse" color-interpolation-filters="sRGB">
<feFlood flood-opacity="0" result="BackgroundImageFix"/>
<feColorMatrix in="SourceAlpha" type="matrix" values="0 0 0 0 0 0 0 0 0 0 0 0 0 0 0 0 0 0 127 0" result="hardAlpha"/>
<feOffset dx="1.49545"/>
<feGaussianBlur stdDeviation="7.47726"/>
<feComposite in2="hardAlpha" operator="out"/>
<feColorMatrix type="matrix" values="0 0 0 0 0 0 0 0 0 0 0 0 0 0 0 0 0 0 0.25 0"/>
<feBlend mode="normal" in2="BackgroundImageFix" result="effect1_dropShadow_2_5425"/>
<feBlend mode="normal" in="SourceGraphic" in2="effect1_dropShadow_2_5425" result="shape"/>
</filter>
</defs>
</svg>
