<svg width="40" height="38" viewBox="0 0 40 38" fill="none" xmlns="http://www.w3.org/2000/svg">
<path d="M33.9002 5.71896C30.7258 2.61536 26.536 0.684816 22.0532 0.260157C17.5704 -0.164502 13.0755 0.943336 9.3435 3.39268C5.61149 5.84202 2.8762 9.47938 1.6092 13.6777C0.342203 17.8759 0.622898 22.372 2.40289 26.3908C2.58842 26.7644 2.64929 27.1848 2.57702 27.5936L0.87446 35.5428C0.808866 35.8476 0.82226 36.1635 0.91344 36.462C1.00462 36.7605 1.17073 37.0323 1.39684 37.253C1.58219 37.4317 1.80288 37.5721 2.04562 37.6658C2.28835 37.7595 2.54809 37.8044 2.80919 37.798H3.19613L11.4768 36.1818C11.8976 36.1326 12.3244 36.1909 12.715 36.3509C16.8524 38.0799 21.4812 38.3525 25.8034 37.1219C30.1256 35.8912 33.8703 33.2343 36.3919 29.6093C38.9135 25.9843 40.0541 21.6183 39.6169 17.264C39.1797 12.9097 37.1922 8.84001 33.997 5.75654L33.9002 5.71896ZM12.4828 20.8846C12.1002 20.8846 11.7261 20.7744 11.4079 20.5679C11.0898 20.3614 10.8418 20.0679 10.6954 19.7245C10.5489 19.3811 10.5106 19.0033 10.5853 18.6387C10.6599 18.2742 10.8442 17.9393 11.1148 17.6765C11.3853 17.4137 11.7301 17.2347 12.1054 17.1622C12.4807 17.0897 12.8697 17.1269 13.2232 17.2691C13.5767 17.4114 13.8789 17.6522 14.0915 17.9613C14.3041 18.2703 14.4175 18.6337 14.4175 19.0053C14.4175 19.5038 14.2137 19.9818 13.8509 20.3342C13.488 20.6866 12.9959 20.8846 12.4828 20.8846ZM20.2217 20.8846C19.8391 20.8846 19.465 20.7744 19.1468 20.5679C18.8287 20.3614 18.5807 20.0679 18.4343 19.7245C18.2878 19.3811 18.2495 19.0033 18.3242 18.6387C18.3988 18.2742 18.5831 17.9393 18.8537 17.6765C19.1242 17.4137 19.469 17.2347 19.8443 17.1622C20.2196 17.0897 20.6086 17.1269 20.9621 17.2691C21.3156 17.4114 21.6178 17.6522 21.8304 17.9613C22.043 18.2703 22.1564 18.6337 22.1564 19.0053C22.1564 19.5038 21.9526 19.9818 21.5898 20.3342C21.2269 20.6866 20.7348 20.8846 20.2217 20.8846ZM27.9606 20.8846C27.578 20.8846 27.2039 20.7744 26.8857 20.5679C26.5676 20.3614 26.3196 20.0679 26.1732 19.7245C26.0267 19.3811 25.9884 19.0033 26.0631 18.6387C26.1377 18.2742 26.322 17.9393 26.5926 17.6765C26.8631 17.4137 27.2079 17.2347 27.5832 17.1622C27.9585 17.0897 28.3475 17.1269 28.701 17.2691C29.0545 17.4114 29.3567 17.6522 29.5693 17.9613C29.7819 18.2703 29.8953 18.6337 29.8953 19.0053C29.8953 19.5038 29.6915 19.9818 29.3287 20.3342C28.9658 20.6866 28.4737 20.8846 27.9606 20.8846Z" fill="white"/>
</svg>
