<svg width="16" height="17" viewBox="0 0 16 17" fill="none" xmlns="http://www.w3.org/2000/svg">
<g clip-path="url(#clip0_133_37979)">
<path fill-rule="evenodd" clip-rule="evenodd" d="M12.6462 0.798524C12.963 1.11047 13.1702 1.76157 13.211 2.15427C13.683 2.46537 14.2414 3.09267 14.2902 4.27417C15.1326 4.89552 15.7726 6.04472 14.9734 7.72517C15.4374 8.18417 15.955 9.58497 15.2894 10.7138C14.5142 12.033 12.8294 12.1248 11.1502 11.8893C11.5982 13.2196 11.7662 14.447 11.0574 15.7041C10.3526 16.8193 9.37983 17.0004 9.04703 17.0004C8.13663 17.0004 7.51264 16.1682 7.25984 15.0598C7.16784 14.7504 7.06304 14.0194 7.02224 13.8273C6.81024 12.6033 6.09743 11.6241 4.88623 10.8923C4.34738 10.5634 3.77829 10.294 3.18783 10.0882H1.31583C0.899035 10.0882 0.400635 9.64022 0.400635 9.09792V2.60732C0.459835 1.99362 0.780635 1.68762 1.36223 1.68762H3.85023C4.94143 1.42412 6.02943 1.14192 7.11343 0.841874C8.16063 0.541824 8.39023 0.442374 9.12303 0.228174C10.7654 -0.224026 11.9054 0.0241742 12.6462 0.797674V0.798524ZM10.7406 1.15892C10.0854 1.15892 9.25584 1.37312 8.88784 1.49807C8.75823 1.54142 8.53104 1.61282 8.29184 1.68592L8.05184 1.75987L7.82143 1.82957L7.37343 1.96387C7.37343 1.96387 6.24544 2.28517 4.03503 2.83087C3.95264 2.84107 3.90863 2.84787 3.90223 2.84957V9.12257C5.11103 9.61727 6.05263 10.2174 6.72623 10.9229C7.73743 11.9803 8.01823 12.9357 8.18384 14.1588C8.27823 14.7734 8.43104 15.2689 8.66144 15.6081C8.72761 15.7097 8.82395 15.7848 8.93503 15.8214C9.05264 15.8614 9.21504 15.8639 9.56143 15.665C9.90784 15.4644 10.3534 14.94 10.4374 14.1588C10.4934 13.3998 10.3014 12.7419 10.0438 12.05C9.95491 11.8142 9.85967 11.5812 9.75823 11.3513C9.58383 11.0002 9.84623 10.4171 10.387 10.5438C11.1118 10.7605 12.9102 11.0538 13.9246 10.5438C14.5142 10.1808 14.6606 9.59517 14.3622 8.78767C14.2636 8.60256 14.1285 8.44222 13.9662 8.31762C13.8302 8.23092 13.5646 7.85522 13.8838 7.42937C14.2006 6.88962 14.6638 5.79057 13.4918 5.10547C13.41 5.05771 13.3417 4.98763 13.2939 4.90247C13.2461 4.81731 13.2205 4.72013 13.2198 4.62097C13.2038 4.38807 13.239 3.52447 12.6358 3.13857C12.4918 3.05612 12.3182 2.98812 12.2198 2.79007C12.1574 2.65917 12.1374 2.34127 12.1374 2.34127C12.055 1.80407 11.9414 1.30257 10.7406 1.15892ZM2.81583 2.84617H1.48943V8.92962H2.81583V2.84617Z" fill="black" fill-opacity="0.89"/>
</g>
<defs>
<clipPath id="clip0_133_37979">
<rect width="16" height="17" fill="white"/>
</clipPath>
</defs>
</svg>
