<svg width="278" height="187" viewBox="0 0 278 187" fill="none" xmlns="http://www.w3.org/2000/svg">
<g filter="url(#filter0_d_2_5394)">
<path d="M252.377 87.4697H21.6232C17.4162 87.4697 14 84.0586 14 79.8464V22.6232C14 18.4162 17.4111 15 21.6232 15H252.377C256.584 15 260 18.4111 260 22.6232V79.8464C260 84.0586 256.584 87.4697 252.377 87.4697Z" fill="white"/>
</g>
<path d="M71.983 47.7414C74.5826 49.297 74.5826 53.1834 71.983 54.7339L60.8143 61.4114L49.6456 68.0888C47.046 69.6445 43.7951 67.7012 43.7951 64.5899V51.2351V37.8802C43.7951 34.7741 47.046 32.8308 49.6456 34.3813L60.8143 41.0587L71.983 47.7414Z" fill="#000E80"/>
<path d="M108.298 56.0543H102.795V58.9854H104.829V62.0959C104.829 63.5914 104.051 64.0101 102.914 64.0101C101.778 64.0101 101 63.5914 101 62.0959V50.6108C101 49.1154 101.778 48.6966 102.914 48.6966C104.051 48.6966 104.829 49.1154 104.829 50.6108V53.0634H108.298V50.0725C108.298 46.9619 106.204 45.6459 103.034 45.6459H102.795C99.6244 45.6459 97.5308 46.9619 97.5308 50.0725V62.6343C97.5308 65.8944 99.6244 67.0608 102.795 67.0608H103.034C106.204 67.0608 108.298 65.8644 108.298 62.6343V56.0543ZM110.996 50.0725V62.6343C110.996 65.8046 113.089 67.0608 116.26 67.0608H116.499C119.669 67.0608 121.763 65.8046 121.763 62.6343V50.0725C121.763 46.9021 119.669 45.6459 116.499 45.6459H116.26C113.089 45.6459 110.996 46.8722 110.996 50.0725ZM114.465 62.0959V50.6108C114.465 49.1154 115.243 48.6966 116.379 48.6966C117.516 48.6966 118.294 49.1154 118.294 50.6108V62.0959C118.294 63.5914 117.516 64.0101 116.379 64.0101C115.243 64.0101 114.465 63.5914 114.465 62.0959ZM124.519 50.0725V62.6343C124.519 65.8046 126.613 67.0608 129.783 67.0608H130.022C133.193 67.0608 135.286 65.8046 135.286 62.6343V50.0725C135.286 46.9021 133.193 45.6459 130.022 45.6459H129.783C126.613 45.6459 124.519 46.8722 124.519 50.0725ZM127.989 62.0959V50.6108C127.989 49.1154 128.766 48.6966 129.903 48.6966C131.039 48.6966 131.817 49.1154 131.817 50.6108V62.0959C131.817 63.5914 131.039 64.0101 129.903 64.0101C128.766 64.0101 127.989 63.5914 127.989 62.0959ZM148.81 56.0543H143.306V58.9854H145.34V62.0959C145.34 63.5914 144.563 64.0101 143.426 64.0101C142.289 64.0101 141.512 63.5914 141.512 62.0959V50.6108C141.512 49.1154 142.289 48.6966 143.426 48.6966C144.563 48.6966 145.34 49.1154 145.34 50.6108V53.0634H148.81V50.0725C148.81 46.9619 146.716 45.6459 143.546 45.6459H143.306C140.136 45.6459 138.042 46.9619 138.042 50.0725V62.6343C138.042 65.8944 140.136 67.0608 143.306 67.0608H143.546C146.716 67.0608 148.81 65.8644 148.81 62.6343V56.0543ZM160.45 63.711H155.096V45.8852H151.627V66.8215H160.45V63.711ZM171.589 66.8215V63.7708H165.787V57.7292H170.572V54.6785H165.787V48.9359H171.499V45.8852H162.317V66.8215H171.589ZM184.233 45.8852H178.82V66.8215H182.289V58.7162H184.233C187.404 58.7162 189.497 57.46 189.497 54.2896V50.3117C189.497 47.1414 187.404 45.8852 184.233 45.8852ZM186.028 53.7513C186.028 55.2467 185.25 55.6655 184.114 55.6655H182.289V48.9359H184.114C185.25 48.9359 186.028 49.3546 186.028 50.8501V53.7513ZM200.524 63.711H195.17V45.8852H191.7V66.8215H200.524V63.711ZM209.808 66.8215H213.337L209.389 45.8852H205.023L201.134 66.8215H204.484L205.232 62.1557H209.06L209.808 66.8215ZM205.681 59.2845L207.146 49.9827L208.612 59.2845H205.681ZM219.716 59.3742L223.933 45.8852H220.344L218.011 55.6056L215.678 45.8852H212.029L216.246 59.3742V66.8215H219.716V59.3742Z" fill="#1B2021"/>
<path d="M113.82 37.3602C114.213 37.3602 114.537 37.3193 114.79 37.2375C115.241 37.0856 115.611 36.7936 115.9 36.3613C116.129 36.0147 116.295 35.5707 116.396 35.0294C116.455 34.7062 116.484 34.4063 116.484 34.1298C116.484 33.0666 116.272 32.241 115.847 31.6529C115.426 31.0649 114.747 30.7709 113.808 30.7709H111.746V37.3602H113.82ZM110.578 29.7719H114.054C115.234 29.7719 116.149 30.1906 116.799 31.0279C117.38 31.7834 117.67 32.7512 117.67 33.9312C117.67 34.8425 117.498 35.6661 117.156 36.4022C116.552 37.7029 115.514 38.3533 114.042 38.3533H110.578V29.7719ZM121.513 37.6756C122.211 37.6756 122.688 37.4128 122.945 36.887C123.206 36.3574 123.336 35.7693 123.336 35.1229C123.336 34.5387 123.243 34.0636 123.056 33.6975C122.76 33.1211 122.249 32.8329 121.525 32.8329C120.883 32.8329 120.415 33.0783 120.123 33.569C119.831 34.0597 119.685 34.6516 119.685 35.3448C119.685 36.0108 119.831 36.5657 120.123 37.0097C120.415 37.4537 120.879 37.6756 121.513 37.6756ZM121.554 31.9158C122.36 31.9158 123.042 32.1845 123.599 32.722C124.156 33.2594 124.434 34.05 124.434 35.0937C124.434 36.1023 124.189 36.9357 123.698 37.5939C123.208 38.252 122.446 38.5811 121.414 38.5811C120.553 38.5811 119.87 38.291 119.364 37.7107C118.857 37.1265 118.604 36.3438 118.604 35.3624C118.604 34.3109 118.871 33.4736 119.405 32.8505C119.938 32.2274 120.655 31.9158 121.554 31.9158ZM126.175 32.0969L127.378 37.0272L128.599 32.0969H129.779L131.006 36.998L132.285 32.0969H133.337L131.52 38.3533H130.428L129.154 33.5106L127.922 38.3533H126.829L125.024 32.0969H126.175ZM134.336 32.0969H135.335V32.9848C135.631 32.6188 135.944 32.3559 136.275 32.1962C136.606 32.0365 136.974 31.9567 137.379 31.9567C138.267 31.9567 138.867 32.2663 139.178 32.8855C139.35 33.2243 139.436 33.7092 139.436 34.3401V38.3533H138.366V34.4102C138.366 34.0285 138.31 33.7209 138.197 33.4872C138.01 33.0978 137.671 32.903 137.181 32.903C136.931 32.903 136.727 32.9284 136.567 32.979C136.279 33.0647 136.026 33.236 135.808 33.4931C135.633 33.6995 135.518 33.9136 135.463 34.1356C135.413 34.3537 135.387 34.6672 135.387 35.0761V38.3533H134.336V32.0969ZM141.024 29.7719H142.076V38.3533H141.024V29.7719ZM146.142 37.6756C146.839 37.6756 147.316 37.4128 147.573 36.887C147.834 36.3574 147.964 35.7693 147.964 35.1229C147.964 34.5387 147.871 34.0636 147.684 33.6975C147.388 33.1211 146.878 32.8329 146.153 32.8329C145.511 32.8329 145.043 33.0783 144.751 33.569C144.459 34.0597 144.313 34.6516 144.313 35.3448C144.313 36.0108 144.459 36.5657 144.751 37.0097C145.043 37.4537 145.507 37.6756 146.142 37.6756ZM146.183 31.9158C146.989 31.9158 147.67 32.1845 148.227 32.722C148.784 33.2594 149.062 34.05 149.062 35.0937C149.062 36.1023 148.817 36.9357 148.326 37.5939C147.836 38.252 147.074 38.5811 146.042 38.5811C145.182 38.5811 144.498 38.291 143.992 37.7107C143.486 37.1265 143.233 36.3438 143.233 35.3624C143.233 34.3109 143.499 33.4736 144.033 32.8505C144.566 32.2274 145.283 31.9158 146.183 31.9158ZM151.125 36.6884C151.125 36.9922 151.236 37.2317 151.458 37.4069C151.68 37.5822 151.942 37.6698 152.246 37.6698C152.616 37.6698 152.974 37.5841 153.321 37.4128C153.905 37.1285 154.197 36.6631 154.197 36.0166V35.1696C154.069 35.2514 153.903 35.3195 153.701 35.374C153.498 35.4286 153.3 35.4675 153.105 35.4909L152.468 35.5727C152.086 35.6233 151.8 35.7031 151.609 35.8122C151.286 35.9952 151.125 36.2873 151.125 36.6884ZM153.672 34.5621C153.913 34.5309 154.075 34.4297 154.156 34.2583C154.203 34.1648 154.226 34.0305 154.226 33.8552C154.226 33.4969 154.098 33.238 153.841 33.0783C153.588 32.9147 153.224 32.8329 152.749 32.8329C152.199 32.8329 151.81 32.9809 151.58 33.2769C151.452 33.4405 151.368 33.6839 151.329 34.0071H150.348C150.367 33.236 150.616 32.7005 151.095 32.4007C151.578 32.0969 152.137 31.945 152.772 31.945C153.508 31.945 154.106 32.0852 154.565 32.3656C155.021 32.646 155.249 33.0822 155.249 33.6741V37.2784C155.249 37.3875 155.27 37.4751 155.313 37.5413C155.36 37.6075 155.455 37.6406 155.599 37.6406C155.646 37.6406 155.699 37.6386 155.757 37.6348C155.815 37.627 155.878 37.6172 155.944 37.6055V38.3825C155.78 38.4292 155.656 38.4584 155.57 38.4701C155.484 38.4818 155.368 38.4876 155.22 38.4876C154.857 38.4876 154.594 38.3591 154.431 38.1021C154.345 37.9658 154.285 37.773 154.25 37.5238C154.036 37.8042 153.728 38.0476 153.327 38.254C152.926 38.4604 152.484 38.5636 152.001 38.5636C151.421 38.5636 150.945 38.3883 150.575 38.0378C150.209 37.6834 150.026 37.2414 150.026 36.7118C150.026 36.1315 150.207 35.6817 150.57 35.3624C150.932 35.043 151.407 34.8464 151.995 34.7724L153.672 34.5621ZM157.644 35.2981C157.644 35.9679 157.786 36.5287 158.07 36.9805C158.355 37.4322 158.81 37.6581 159.437 37.6581C159.924 37.6581 160.323 37.4498 160.635 37.0331C160.95 36.6125 161.108 36.0108 161.108 35.228C161.108 34.4374 160.946 33.8533 160.623 33.4755C160.3 33.0939 159.901 32.903 159.426 32.903C158.896 32.903 158.466 33.1056 158.135 33.5106C157.807 33.9156 157.644 34.5114 157.644 35.2981ZM159.227 31.9859C159.706 31.9859 160.107 32.0872 160.43 32.2897C160.617 32.4065 160.829 32.611 161.067 32.903V29.7427H162.078V38.3533H161.131V37.4829C160.886 37.8684 160.596 38.1469 160.261 38.3182C159.926 38.4896 159.542 38.5753 159.11 38.5753C158.413 38.5753 157.809 38.2832 157.299 37.699C156.789 37.111 156.534 36.3301 156.534 35.3565C156.534 34.4452 156.766 33.6566 157.229 32.9907C157.696 32.3208 158.362 31.9859 159.227 31.9859ZM169.45 37.6756C170.147 37.6756 170.624 37.4128 170.881 36.887C171.142 36.3574 171.272 35.7693 171.272 35.1229C171.272 34.5387 171.179 34.0636 170.992 33.6975C170.696 33.1211 170.186 32.8329 169.461 32.8329C168.819 32.8329 168.351 33.0783 168.059 33.569C167.767 34.0597 167.621 34.6516 167.621 35.3448C167.621 36.0108 167.767 36.5657 168.059 37.0097C168.351 37.4537 168.815 37.6756 169.45 37.6756ZM169.491 31.9158C170.297 31.9158 170.978 32.1845 171.535 32.722C172.092 33.2594 172.371 34.05 172.371 35.0937C172.371 36.1023 172.125 36.9357 171.634 37.5939C171.144 38.252 170.382 38.5811 169.35 38.5811C168.49 38.5811 167.806 38.291 167.3 37.7107C166.794 37.1265 166.541 36.3438 166.541 35.3624C166.541 34.3109 166.807 33.4736 167.341 32.8505C167.874 32.2274 168.591 31.9158 169.491 31.9158ZM173.626 32.0969H174.625V32.9848C174.921 32.6188 175.235 32.3559 175.566 32.1962C175.897 32.0365 176.265 31.9567 176.67 31.9567C177.558 31.9567 178.158 32.2663 178.469 32.8855C178.641 33.2243 178.726 33.7092 178.726 34.3401V38.3533H177.657V34.4102C177.657 34.0285 177.601 33.7209 177.488 33.4872C177.301 33.0978 176.962 32.903 176.471 32.903C176.222 32.903 176.018 32.9284 175.858 32.979C175.57 33.0647 175.317 33.236 175.099 33.4931C174.923 33.6995 174.808 33.9136 174.754 34.1356C174.703 34.3537 174.678 34.6672 174.678 35.0761V38.3533H173.626V32.0969ZM183.826 30.3503H184.889V32.0969H185.888V32.9556H184.889V37.0389C184.889 37.257 184.963 37.403 185.111 37.477C185.193 37.5199 185.329 37.5413 185.52 37.5413C185.571 37.5413 185.625 37.5413 185.684 37.5413C185.742 37.5374 185.81 37.5316 185.888 37.5238V38.3533C185.767 38.3883 185.641 38.4136 185.508 38.4292C185.38 38.4448 185.24 38.4526 185.088 38.4526C184.597 38.4526 184.264 38.328 184.089 38.0787C183.914 37.8256 183.826 37.4984 183.826 37.0973V32.9556H182.979V32.0969H183.826V30.3503ZM186.945 29.7427H187.997V32.9439C188.246 32.6285 188.47 32.4065 188.669 32.278C189.007 32.056 189.43 31.945 189.936 31.945C190.844 31.945 191.459 32.2624 191.782 32.8972C191.957 33.2438 192.045 33.7248 192.045 34.3401V38.3533H190.964V34.4102C190.964 33.9506 190.906 33.6138 190.789 33.3996C190.598 33.0569 190.24 32.8855 189.714 32.8855C189.278 32.8855 188.883 33.0355 188.528 33.3353C188.174 33.6352 187.997 34.2018 187.997 35.0352V38.3533H186.945V29.7427ZM196.21 31.9567C196.654 31.9567 197.084 32.0619 197.501 32.2722C197.918 32.4786 198.235 32.7473 198.453 33.0783C198.664 33.3937 198.804 33.7618 198.874 34.1824C198.936 34.4705 198.967 34.9301 198.967 35.561H194.382C194.401 36.1958 194.551 36.7059 194.832 37.0915C195.112 37.4731 195.546 37.664 196.134 37.664C196.683 37.664 197.121 37.4829 197.449 37.1207C197.635 36.9104 197.768 36.667 197.846 36.3905H198.88C198.852 36.6203 198.761 36.8773 198.605 37.1616C198.453 37.442 198.282 37.6718 198.091 37.8509C197.772 38.1624 197.377 38.3727 196.905 38.4818C196.652 38.5441 196.366 38.5753 196.047 38.5753C195.268 38.5753 194.608 38.2929 194.066 37.7282C193.525 37.1596 193.254 36.3652 193.254 35.3448C193.254 34.3401 193.527 33.5242 194.072 32.8972C194.617 32.2702 195.33 31.9567 196.21 31.9567ZM197.887 34.7256C197.844 34.27 197.745 33.9059 197.589 33.6332C197.301 33.127 196.82 32.8738 196.146 32.8738C195.663 32.8738 195.258 33.0491 194.931 33.3996C194.604 33.7462 194.43 34.1882 194.411 34.7256H197.887Z" fill="#1B2021"/>
<g filter="url(#filter1_d_2_5394)">
<path d="M253.377 171.891H22.6232C18.4162 171.891 15 168.479 15 164.267V107.044C15 102.837 18.4111 99.4209 22.6232 99.4209H253.377C257.584 99.4209 261 102.832 261 107.044V164.267C261 168.474 257.584 171.891 253.377 171.891Z" fill="#1B57ED"/>
</g>
<path d="M107.913 152.822H111.442L107.494 131.885H103.127L99.2393 152.822H102.589L103.337 148.156H107.165L107.913 152.822ZM103.785 145.284L105.251 135.983L106.717 145.284H103.785ZM118.585 131.885H113.172V152.822H116.641V144.716H118.585C121.756 144.716 123.849 143.46 123.849 140.29V136.312C123.849 133.141 121.756 131.885 118.585 131.885ZM120.38 139.751C120.38 141.247 119.602 141.665 118.466 141.665H116.641V134.936H118.466C119.602 134.936 120.38 135.355 120.38 136.85V139.751ZM131.466 131.885H126.053V152.822H129.522V144.716H131.466C134.636 144.716 136.73 143.46 136.73 140.29V136.312C136.73 133.141 134.636 131.885 131.466 131.885ZM133.261 139.751C133.261 141.247 132.483 141.665 131.346 141.665H129.522V134.936H131.346C132.483 134.936 133.261 135.355 133.261 136.85V139.751ZM153.653 139.362V135.953C153.653 132.842 151.38 131.646 148.509 131.646H148.449C145.578 131.646 143.305 132.842 143.305 135.953V138.704C143.305 140.888 144.471 141.845 146.505 143.011L148.928 144.387C149.974 144.955 150.303 145.494 150.303 146.571V148.216C150.303 149.502 149.556 150.07 148.509 150.07C147.462 150.07 146.714 149.502 146.714 148.216V145.045H143.305V148.694C143.305 151.954 145.309 153.061 148.479 153.061H148.539C151.709 153.061 153.713 151.924 153.713 148.694V145.673C153.713 143.43 152.517 142.503 150.513 141.366L148.06 139.991C147.073 139.422 146.714 138.944 146.714 137.867V136.431C146.714 135.115 147.462 134.637 148.479 134.637C149.496 134.637 150.244 135.115 150.244 136.431V139.362H153.653ZM165.379 131.885H154.911V134.936H158.411V152.822H161.88V134.936H165.379V131.885ZM166.941 136.072V148.634C166.941 151.805 169.035 153.061 172.205 153.061H172.444C175.615 153.061 177.708 151.805 177.708 148.634V136.072C177.708 132.902 175.615 131.646 172.444 131.646H172.205C169.035 131.646 166.941 132.872 166.941 136.072ZM170.41 148.096V136.611C170.41 135.115 171.188 134.697 172.325 134.697C173.461 134.697 174.239 135.115 174.239 136.611V148.096C174.239 149.591 173.461 150.01 172.325 150.01C171.188 150.01 170.41 149.591 170.41 148.096ZM191.979 152.822L188.988 143.939C190.424 143.31 191.261 142.054 191.261 140.05V136.312C191.261 133.141 189.168 131.885 185.998 131.885H180.584V152.822H184.053V144.477H185.788L188.45 152.822H191.979ZM184.053 134.936H185.878C187.014 134.936 187.792 135.355 187.792 136.85V139.572C187.792 141.067 187.014 141.486 185.878 141.486H184.053V134.936ZM203.35 152.822V149.771H197.548V143.729H202.333V140.678H197.548V134.936H203.26V131.885H194.078V152.822H203.35Z" fill="white"/>
<path d="M111.051 123.007C111.444 123.007 111.768 122.966 112.021 122.884C112.472 122.732 112.842 122.44 113.131 122.008C113.36 121.661 113.526 121.217 113.627 120.676C113.686 120.353 113.715 120.053 113.715 119.777C113.715 118.713 113.502 117.888 113.078 117.3C112.657 116.712 111.978 116.418 111.039 116.418H108.977V123.007H111.051ZM107.809 115.419H111.285C112.465 115.419 113.38 115.837 114.03 116.675C114.61 117.43 114.901 118.398 114.901 119.578C114.901 120.489 114.729 121.313 114.387 122.049C113.783 123.35 112.745 124 111.273 124H107.809V115.419ZM118.744 123.322C119.441 123.322 119.919 123.06 120.176 122.534C120.436 122.004 120.567 121.416 120.567 120.77C120.567 120.185 120.473 119.71 120.287 119.344C119.991 118.768 119.48 118.48 118.756 118.48C118.113 118.48 117.646 118.725 117.354 119.216C117.062 119.706 116.916 120.298 116.916 120.992C116.916 121.658 117.062 122.212 117.354 122.656C117.646 123.1 118.11 123.322 118.744 123.322ZM118.785 117.563C119.591 117.563 120.273 117.831 120.83 118.369C121.387 118.906 121.665 119.697 121.665 120.74C121.665 121.749 121.42 122.582 120.929 123.241C120.438 123.899 119.677 124.228 118.645 124.228C117.784 124.228 117.101 123.938 116.595 123.357C116.088 122.773 115.835 121.99 115.835 121.009C115.835 119.958 116.102 119.12 116.636 118.497C117.169 117.874 117.886 117.563 118.785 117.563ZM123.406 117.744L124.609 122.674L125.83 117.744H127.01L128.237 122.645L129.516 117.744H130.568L128.751 124H127.659L126.385 119.157L125.153 124H124.06L122.255 117.744H123.406ZM131.567 117.744H132.566V118.632C132.862 118.265 133.175 118.003 133.506 117.843C133.837 117.683 134.205 117.603 134.61 117.603C135.498 117.603 136.098 117.913 136.409 118.532C136.581 118.871 136.666 119.356 136.666 119.987V124H135.597V120.057C135.597 119.675 135.541 119.368 135.428 119.134C135.241 118.744 134.902 118.55 134.412 118.55C134.162 118.55 133.958 118.575 133.798 118.626C133.51 118.711 133.257 118.883 133.039 119.14C132.864 119.346 132.749 119.56 132.694 119.782C132.644 120 132.618 120.314 132.618 120.723V124H131.567V117.744ZM138.255 115.419H139.307V124H138.255V115.419ZM143.373 123.322C144.07 123.322 144.547 123.06 144.804 122.534C145.065 122.004 145.195 121.416 145.195 120.77C145.195 120.185 145.102 119.71 144.915 119.344C144.619 118.768 144.109 118.48 143.384 118.48C142.742 118.48 142.274 118.725 141.982 119.216C141.69 119.706 141.544 120.298 141.544 120.992C141.544 121.658 141.69 122.212 141.982 122.656C142.274 123.1 142.738 123.322 143.373 123.322ZM143.413 117.563C144.22 117.563 144.901 117.831 145.458 118.369C146.015 118.906 146.293 119.697 146.293 120.74C146.293 121.749 146.048 122.582 145.557 123.241C145.067 123.899 144.305 124.228 143.273 124.228C142.413 124.228 141.729 123.938 141.223 123.357C140.717 122.773 140.463 121.99 140.463 121.009C140.463 119.958 140.73 119.12 141.264 118.497C141.797 117.874 142.514 117.563 143.413 117.563ZM148.355 122.335C148.355 122.639 148.466 122.878 148.688 123.054C148.91 123.229 149.173 123.317 149.477 123.317C149.847 123.317 150.205 123.231 150.552 123.06C151.136 122.775 151.428 122.31 151.428 121.663V120.816C151.3 120.898 151.134 120.966 150.932 121.021C150.729 121.075 150.531 121.114 150.336 121.138L149.699 121.219C149.317 121.27 149.031 121.35 148.84 121.459C148.517 121.642 148.355 121.934 148.355 122.335ZM150.902 120.209C151.144 120.178 151.306 120.076 151.387 119.905C151.434 119.812 151.457 119.677 151.457 119.502C151.457 119.144 151.329 118.885 151.072 118.725C150.819 118.561 150.455 118.48 149.979 118.48C149.43 118.48 149.041 118.628 148.811 118.924C148.683 119.087 148.599 119.331 148.56 119.654H147.579C147.598 118.883 147.847 118.347 148.326 118.047C148.809 117.744 149.368 117.592 150.003 117.592C150.739 117.592 151.337 117.732 151.796 118.012C152.252 118.293 152.48 118.729 152.48 119.321V122.925C152.48 123.034 152.501 123.122 152.544 123.188C152.591 123.254 152.686 123.287 152.83 123.287C152.877 123.287 152.929 123.285 152.988 123.281C153.046 123.274 153.109 123.264 153.175 123.252V124.029C153.011 124.076 152.887 124.105 152.801 124.117C152.715 124.129 152.598 124.134 152.45 124.134C152.088 124.134 151.825 124.006 151.662 123.749C151.576 123.613 151.516 123.42 151.481 123.17C151.267 123.451 150.959 123.694 150.558 123.901C150.157 124.107 149.715 124.21 149.232 124.21C148.651 124.21 148.176 124.035 147.806 123.685C147.44 123.33 147.257 122.888 147.257 122.359C147.257 121.778 147.438 121.328 147.801 121.009C148.163 120.69 148.638 120.493 149.226 120.419L150.902 120.209ZM154.875 120.945C154.875 121.615 155.017 122.175 155.301 122.627C155.585 123.079 156.041 123.305 156.668 123.305C157.155 123.305 157.554 123.096 157.866 122.68C158.181 122.259 158.339 121.658 158.339 120.875C158.339 120.084 158.177 119.5 157.854 119.122C157.531 118.741 157.132 118.55 156.656 118.55C156.127 118.55 155.696 118.752 155.365 119.157C155.038 119.562 154.875 120.158 154.875 120.945ZM156.458 117.633C156.937 117.633 157.338 117.734 157.661 117.936C157.848 118.053 158.06 118.258 158.298 118.55V115.389H159.309V124H158.362V123.13C158.117 123.515 157.827 123.794 157.492 123.965C157.157 124.136 156.773 124.222 156.341 124.222C155.644 124.222 155.04 123.93 154.53 123.346C154.02 122.758 153.765 121.977 153.765 121.003C153.765 120.092 153.997 119.303 154.46 118.637C154.927 117.968 155.593 117.633 156.458 117.633ZM166.681 123.322C167.378 123.322 167.855 123.06 168.112 122.534C168.373 122.004 168.503 121.416 168.503 120.77C168.503 120.185 168.41 119.71 168.223 119.344C167.927 118.768 167.417 118.48 166.692 118.48C166.05 118.48 165.582 118.725 165.29 119.216C164.998 119.706 164.852 120.298 164.852 120.992C164.852 121.658 164.998 122.212 165.29 122.656C165.582 123.1 166.046 123.322 166.681 123.322ZM166.722 117.563C167.528 117.563 168.209 117.831 168.766 118.369C169.323 118.906 169.601 119.697 169.601 120.74C169.601 121.749 169.356 122.582 168.865 123.241C168.375 123.899 167.613 124.228 166.581 124.228C165.721 124.228 165.037 123.938 164.531 123.357C164.025 122.773 163.772 121.99 163.772 121.009C163.772 119.958 164.038 119.12 164.572 118.497C165.105 117.874 165.822 117.563 166.722 117.563ZM170.857 117.744H171.856V118.632C172.152 118.265 172.466 118.003 172.797 117.843C173.128 117.683 173.496 117.603 173.901 117.603C174.789 117.603 175.389 117.913 175.7 118.532C175.871 118.871 175.957 119.356 175.957 119.987V124H174.888V120.057C174.888 119.675 174.832 119.368 174.719 119.134C174.532 118.744 174.193 118.55 173.702 118.55C173.453 118.55 173.249 118.575 173.089 118.626C172.801 118.711 172.548 118.883 172.329 119.14C172.154 119.346 172.039 119.56 171.985 119.782C171.934 120 171.909 120.314 171.909 120.723V124H170.857V117.744ZM181.057 115.997H182.12V117.744H183.119V118.602H182.12V122.686C182.12 122.904 182.194 123.05 182.342 123.124C182.424 123.167 182.56 123.188 182.751 123.188C182.802 123.188 182.856 123.188 182.914 123.188C182.973 123.184 183.041 123.178 183.119 123.17V124C182.998 124.035 182.872 124.06 182.739 124.076C182.611 124.092 182.471 124.099 182.319 124.099C181.828 124.099 181.495 123.975 181.32 123.725C181.144 123.472 181.057 123.145 181.057 122.744V118.602H180.21V117.744H181.057V115.997ZM184.176 115.389H185.228V118.591C185.477 118.275 185.701 118.053 185.9 117.925C186.238 117.703 186.661 117.592 187.167 117.592C188.075 117.592 188.69 117.909 189.013 118.544C189.188 118.891 189.276 119.371 189.276 119.987V124H188.195V120.057C188.195 119.597 188.137 119.261 188.02 119.046C187.829 118.704 187.471 118.532 186.945 118.532C186.509 118.532 186.114 118.682 185.759 118.982C185.405 119.282 185.228 119.849 185.228 120.682V124H184.176V115.389ZM193.441 117.603C193.885 117.603 194.315 117.709 194.732 117.919C195.149 118.125 195.466 118.394 195.684 118.725C195.895 119.04 196.035 119.408 196.105 119.829C196.167 120.117 196.198 120.577 196.198 121.208H191.613C191.632 121.842 191.782 122.353 192.062 122.738C192.343 123.12 192.777 123.311 193.365 123.311C193.914 123.311 194.352 123.13 194.679 122.767C194.866 122.557 194.999 122.314 195.077 122.037H196.111C196.083 122.267 195.992 122.524 195.836 122.808C195.684 123.089 195.513 123.318 195.322 123.498C195.003 123.809 194.607 124.019 194.136 124.129C193.883 124.191 193.597 124.222 193.278 124.222C192.499 124.222 191.839 123.94 191.297 123.375C190.756 122.806 190.485 122.012 190.485 120.992C190.485 119.987 190.758 119.171 191.303 118.544C191.848 117.917 192.561 117.603 193.441 117.603ZM195.118 120.372C195.075 119.917 194.975 119.553 194.82 119.28C194.531 118.774 194.051 118.521 193.377 118.521C192.894 118.521 192.489 118.696 192.162 119.046C191.835 119.393 191.661 119.835 191.642 120.372H195.118Z" fill="white"/>
<path d="M67.7475 157.342H50.4854C47.7618 157.342 45.5497 155.047 45.5497 152.231V119.086C45.5497 116.264 47.7618 113.975 50.4854 113.975H67.7475C70.4712 113.975 72.6832 116.27 72.6832 119.086V152.231C72.6832 155.047 70.4712 157.342 67.7475 157.342ZM50.4854 117.065C49.4104 117.065 48.5422 117.97 48.5422 119.081V152.225C48.5422 153.337 49.4156 154.241 50.4854 154.241H67.7475C68.8225 154.241 69.6908 153.337 69.6908 152.225V119.081C69.6908 117.97 68.8174 117.065 67.7475 117.065H50.4854Z" fill="white"/>
<defs>
<filter id="filter0_d_2_5394" x="0.540925" y="0.0454721" width="275.909" height="102.379" filterUnits="userSpaceOnUse" color-interpolation-filters="sRGB">
<feFlood flood-opacity="0" result="BackgroundImageFix"/>
<feColorMatrix in="SourceAlpha" type="matrix" values="0 0 0 0 0 0 0 0 0 0 0 0 0 0 0 0 0 0 127 0" result="hardAlpha"/>
<feOffset dx="1.49545"/>
<feGaussianBlur stdDeviation="7.47726"/>
<feComposite in2="hardAlpha" operator="out"/>
<feColorMatrix type="matrix" values="0 0 0 0 0 0 0 0 0 0 0 0 0 0 0 0 0 0 0.25 0"/>
<feBlend mode="normal" in2="BackgroundImageFix" result="effect1_dropShadow_2_5394"/>
<feBlend mode="normal" in="SourceGraphic" in2="effect1_dropShadow_2_5394" result="shape"/>
</filter>
<filter id="filter1_d_2_5394" x="1.54092" y="84.4664" width="275.909" height="102.379" filterUnits="userSpaceOnUse" color-interpolation-filters="sRGB">
<feFlood flood-opacity="0" result="BackgroundImageFix"/>
<feColorMatrix in="SourceAlpha" type="matrix" values="0 0 0 0 0 0 0 0 0 0 0 0 0 0 0 0 0 0 127 0" result="hardAlpha"/>
<feOffset dx="1.49545"/>
<feGaussianBlur stdDeviation="7.47726"/>
<feComposite in2="hardAlpha" operator="out"/>
<feColorMatrix type="matrix" values="0 0 0 0 0 0 0 0 0 0 0 0 0 0 0 0 0 0 0.25 0"/>
<feBlend mode="normal" in2="BackgroundImageFix" result="effect1_dropShadow_2_5394"/>
<feBlend mode="normal" in="SourceGraphic" in2="effect1_dropShadow_2_5394" result="shape"/>
</filter>
</defs>
</svg>
