<svg width="54" height="54" viewBox="0 0 54 54" fill="none" xmlns="http://www.w3.org/2000/svg">
<path fill-rule="evenodd" clip-rule="evenodd" d="M22.8105 4.08396C23.8183 3.78164 24.8828 3.7191 25.9191 3.90133C26.9554 4.08357 27.9347 4.50553 28.7789 5.13354C29.6231 5.76155 30.3088 6.57821 30.7812 7.51835C31.2537 8.45848 31.4998 9.49604 31.5 10.5482V43.4522C31.4998 44.5044 31.2537 45.5419 30.7812 46.4821C30.3088 47.4222 29.6231 48.2389 28.7789 48.8669C27.9347 49.4949 26.9554 49.9168 25.9191 50.0991C24.8828 50.2813 23.8183 50.2188 22.8105 49.9165L9.3105 45.8665C7.92023 45.4494 6.70142 44.5953 5.83488 43.4309C4.96835 42.2664 4.50024 40.8537 4.5 39.4022V14.5982C4.50024 13.1467 4.96835 11.734 5.83488 10.5696C6.70142 9.40512 7.92023 8.55102 9.3105 8.13396L22.8105 4.08396V4.08396ZM33.75 9.00021C33.75 8.40347 33.9871 7.83118 34.409 7.40922C34.831 6.98726 35.4033 6.75021 36 6.75021H42.75C44.5402 6.75021 46.2571 7.46137 47.523 8.72724C48.7888 9.99311 49.5 11.71 49.5 13.5002V15.7502C49.5 16.3469 49.2629 16.9192 48.841 17.3412C48.419 17.7632 47.8467 18.0002 47.25 18.0002C46.6533 18.0002 46.081 17.7632 45.659 17.3412C45.237 16.9192 45 16.3469 45 15.7502V13.5002C45 12.9035 44.7629 12.3312 44.341 11.9092C43.919 11.4873 43.3467 11.2502 42.75 11.2502H36C35.4033 11.2502 34.831 11.0132 34.409 10.5912C33.9871 10.1692 33.75 9.59695 33.75 9.00021ZM47.25 36.0002C47.8467 36.0002 48.419 36.2373 48.841 36.6592C49.2629 37.0812 49.5 37.6535 49.5 38.2502V40.5002C49.5 42.2904 48.7888 44.0073 47.523 45.2732C46.2571 46.539 44.5402 47.2502 42.75 47.2502H36C35.4033 47.2502 34.831 47.0132 34.409 46.5912C33.9871 46.1692 33.75 45.5969 33.75 45.0002C33.75 44.4035 33.9871 43.8312 34.409 43.4092C34.831 42.9873 35.4033 42.7502 36 42.7502H42.75C43.3467 42.7502 43.919 42.5132 44.341 42.0912C44.7629 41.6692 45 41.0969 45 40.5002V38.2502C45 37.6535 45.237 37.0812 45.659 36.6592C46.081 36.2373 46.6533 36.0002 47.25 36.0002ZM20.25 24.7502C19.6533 24.7502 19.081 24.9873 18.659 25.4092C18.2371 25.8312 18 26.4035 18 27.0002C18 27.5969 18.2371 28.1692 18.659 28.5912C19.081 29.0132 19.6533 29.2502 20.25 29.2502H20.2522C20.849 29.2502 21.4213 29.0132 21.8432 28.5912C22.2652 28.1692 22.5022 27.5969 22.5022 27.0002C22.5022 26.4035 22.2652 25.8312 21.8432 25.4092C21.4213 24.9873 20.849 24.7502 20.2522 24.7502H20.25Z" fill="white"/>
<path d="M47.25 27L42.75 31.5M36 27H47.25H36ZM47.25 27L42.75 22.5L47.25 27Z" stroke="white" stroke-width="4.16667" stroke-linecap="round" stroke-linejoin="round"/>
</svg>
