<svg width="277" height="103" viewBox="0 0 277 103" fill="none" xmlns="http://www.w3.org/2000/svg">
<g filter="url(#filter0_d_2_5395)">
<path d="M252.377 87.4697H21.6232C17.4162 87.4697 14 84.0586 14 79.8464V22.6232C14 18.4162 17.4111 15 21.6232 15H252.377C256.584 15 260 18.4111 260 22.6232V79.8464C260 84.0586 256.584 87.4697 252.377 87.4697Z" fill="white"/>
</g>
<path d="M71.983 47.7414C74.5826 49.297 74.5826 53.1834 71.983 54.7339L60.8143 61.4114L49.6456 68.0888C47.046 69.6445 43.7951 67.7012 43.7951 64.5899V51.2351V37.8802C43.7951 34.7741 47.046 32.8308 49.6456 34.3813L60.8143 41.0587L71.983 47.7414Z" fill="#000E80"/>
<path d="M108.298 56.0543H102.795V58.9854H104.829V62.0959C104.829 63.5914 104.051 64.0101 102.914 64.0101C101.778 64.0101 101 63.5914 101 62.0959V50.6108C101 49.1154 101.778 48.6966 102.914 48.6966C104.051 48.6966 104.829 49.1154 104.829 50.6108V53.0634H108.298V50.0725C108.298 46.9619 106.204 45.6459 103.034 45.6459H102.795C99.6244 45.6459 97.5308 46.9619 97.5308 50.0725V62.6343C97.5308 65.8944 99.6244 67.0608 102.795 67.0608H103.034C106.204 67.0608 108.298 65.8644 108.298 62.6343V56.0543ZM110.996 50.0725V62.6343C110.996 65.8046 113.089 67.0608 116.26 67.0608H116.499C119.669 67.0608 121.763 65.8046 121.763 62.6343V50.0725C121.763 46.9021 119.669 45.6459 116.499 45.6459H116.26C113.089 45.6459 110.996 46.8722 110.996 50.0725ZM114.465 62.0959V50.6108C114.465 49.1154 115.243 48.6966 116.379 48.6966C117.516 48.6966 118.294 49.1154 118.294 50.6108V62.0959C118.294 63.5914 117.516 64.0101 116.379 64.0101C115.243 64.0101 114.465 63.5914 114.465 62.0959ZM124.519 50.0725V62.6343C124.519 65.8046 126.613 67.0608 129.783 67.0608H130.022C133.193 67.0608 135.286 65.8046 135.286 62.6343V50.0725C135.286 46.9021 133.193 45.6459 130.022 45.6459H129.783C126.613 45.6459 124.519 46.8722 124.519 50.0725ZM127.989 62.0959V50.6108C127.989 49.1154 128.766 48.6966 129.903 48.6966C131.039 48.6966 131.817 49.1154 131.817 50.6108V62.0959C131.817 63.5914 131.039 64.0101 129.903 64.0101C128.766 64.0101 127.989 63.5914 127.989 62.0959ZM148.81 56.0543H143.306V58.9854H145.34V62.0959C145.34 63.5914 144.563 64.0101 143.426 64.0101C142.289 64.0101 141.512 63.5914 141.512 62.0959V50.6108C141.512 49.1154 142.289 48.6966 143.426 48.6966C144.563 48.6966 145.34 49.1154 145.34 50.6108V53.0634H148.81V50.0725C148.81 46.9619 146.716 45.6459 143.546 45.6459H143.306C140.136 45.6459 138.042 46.9619 138.042 50.0725V62.6343C138.042 65.8944 140.136 67.0608 143.306 67.0608H143.546C146.716 67.0608 148.81 65.8644 148.81 62.6343V56.0543ZM160.45 63.711H155.096V45.8852H151.627V66.8215H160.45V63.711ZM171.589 66.8215V63.7708H165.787V57.7292H170.572V54.6785H165.787V48.9359H171.499V45.8852H162.317V66.8215H171.589ZM184.233 45.8852H178.82V66.8215H182.289V58.7162H184.233C187.404 58.7162 189.497 57.46 189.497 54.2896V50.3117C189.497 47.1414 187.404 45.8852 184.233 45.8852ZM186.028 53.7513C186.028 55.2467 185.25 55.6655 184.114 55.6655H182.289V48.9359H184.114C185.25 48.9359 186.028 49.3546 186.028 50.8501V53.7513ZM200.524 63.711H195.17V45.8852H191.7V66.8215H200.524V63.711ZM209.808 66.8215H213.337L209.389 45.8852H205.023L201.134 66.8215H204.484L205.232 62.1557H209.06L209.808 66.8215ZM205.681 59.2845L207.146 49.9827L208.612 59.2845H205.681ZM219.716 59.3742L223.933 45.8852H220.344L218.011 55.6056L215.678 45.8852H212.029L216.246 59.3742V66.8215H219.716V59.3742Z" fill="#1B2021"/>
<path d="M113.82 37.3602C114.213 37.3602 114.537 37.3193 114.79 37.2375C115.241 37.0856 115.611 36.7936 115.9 36.3613C116.129 36.0147 116.295 35.5707 116.396 35.0294C116.455 34.7062 116.484 34.4063 116.484 34.1298C116.484 33.0666 116.272 32.241 115.847 31.6529C115.426 31.0649 114.747 30.7709 113.808 30.7709H111.746V37.3602H113.82ZM110.578 29.7719H114.054C115.234 29.7719 116.149 30.1906 116.799 31.0279C117.38 31.7834 117.67 32.7512 117.67 33.9312C117.67 34.8425 117.498 35.6661 117.156 36.4022C116.552 37.7029 115.514 38.3533 114.042 38.3533H110.578V29.7719ZM121.513 37.6756C122.211 37.6756 122.688 37.4128 122.945 36.887C123.206 36.3574 123.336 35.7693 123.336 35.1229C123.336 34.5387 123.243 34.0636 123.056 33.6975C122.76 33.1211 122.249 32.8329 121.525 32.8329C120.883 32.8329 120.415 33.0783 120.123 33.569C119.831 34.0597 119.685 34.6516 119.685 35.3448C119.685 36.0108 119.831 36.5657 120.123 37.0097C120.415 37.4537 120.879 37.6756 121.513 37.6756ZM121.554 31.9158C122.36 31.9158 123.042 32.1845 123.599 32.722C124.156 33.2594 124.434 34.05 124.434 35.0937C124.434 36.1023 124.189 36.9357 123.698 37.5939C123.208 38.252 122.446 38.5811 121.414 38.5811C120.553 38.5811 119.87 38.291 119.364 37.7107C118.857 37.1265 118.604 36.3438 118.604 35.3624C118.604 34.3109 118.871 33.4736 119.405 32.8505C119.938 32.2274 120.655 31.9158 121.554 31.9158ZM126.175 32.0969L127.378 37.0272L128.599 32.0969H129.779L131.006 36.998L132.285 32.0969H133.337L131.52 38.3533H130.428L129.154 33.5106L127.922 38.3533H126.829L125.024 32.0969H126.175ZM134.336 32.0969H135.335V32.9848C135.631 32.6188 135.944 32.3559 136.275 32.1962C136.606 32.0365 136.974 31.9567 137.379 31.9567C138.267 31.9567 138.867 32.2663 139.178 32.8855C139.35 33.2243 139.436 33.7092 139.436 34.3401V38.3533H138.366V34.4102C138.366 34.0285 138.31 33.7209 138.197 33.4872C138.01 33.0978 137.671 32.903 137.181 32.903C136.931 32.903 136.727 32.9284 136.567 32.979C136.279 33.0647 136.026 33.236 135.808 33.4931C135.633 33.6995 135.518 33.9136 135.463 34.1356C135.413 34.3537 135.387 34.6672 135.387 35.0761V38.3533H134.336V32.0969ZM141.024 29.7719H142.076V38.3533H141.024V29.7719ZM146.142 37.6756C146.839 37.6756 147.316 37.4128 147.573 36.887C147.834 36.3574 147.964 35.7693 147.964 35.1229C147.964 34.5387 147.871 34.0636 147.684 33.6975C147.388 33.1211 146.878 32.8329 146.153 32.8329C145.511 32.8329 145.043 33.0783 144.751 33.569C144.459 34.0597 144.313 34.6516 144.313 35.3448C144.313 36.0108 144.459 36.5657 144.751 37.0097C145.043 37.4537 145.507 37.6756 146.142 37.6756ZM146.183 31.9158C146.989 31.9158 147.67 32.1845 148.227 32.722C148.784 33.2594 149.062 34.05 149.062 35.0937C149.062 36.1023 148.817 36.9357 148.326 37.5939C147.836 38.252 147.074 38.5811 146.042 38.5811C145.182 38.5811 144.498 38.291 143.992 37.7107C143.486 37.1265 143.233 36.3438 143.233 35.3624C143.233 34.3109 143.499 33.4736 144.033 32.8505C144.566 32.2274 145.283 31.9158 146.183 31.9158ZM151.125 36.6884C151.125 36.9922 151.236 37.2317 151.458 37.4069C151.68 37.5822 151.942 37.6698 152.246 37.6698C152.616 37.6698 152.974 37.5841 153.321 37.4128C153.905 37.1285 154.197 36.6631 154.197 36.0166V35.1696C154.069 35.2514 153.903 35.3195 153.701 35.374C153.498 35.4286 153.3 35.4675 153.105 35.4909L152.468 35.5727C152.086 35.6233 151.8 35.7031 151.609 35.8122C151.286 35.9952 151.125 36.2873 151.125 36.6884ZM153.672 34.5621C153.913 34.5309 154.075 34.4297 154.156 34.2583C154.203 34.1648 154.226 34.0305 154.226 33.8552C154.226 33.4969 154.098 33.238 153.841 33.0783C153.588 32.9147 153.224 32.8329 152.749 32.8329C152.199 32.8329 151.81 32.9809 151.58 33.2769C151.452 33.4405 151.368 33.6839 151.329 34.0071H150.348C150.367 33.236 150.616 32.7005 151.095 32.4007C151.578 32.0969 152.137 31.945 152.772 31.945C153.508 31.945 154.106 32.0852 154.565 32.3656C155.021 32.646 155.249 33.0822 155.249 33.6741V37.2784C155.249 37.3875 155.27 37.4751 155.313 37.5413C155.36 37.6075 155.455 37.6406 155.599 37.6406C155.646 37.6406 155.699 37.6386 155.757 37.6348C155.815 37.627 155.878 37.6172 155.944 37.6055V38.3825C155.78 38.4292 155.656 38.4584 155.57 38.4701C155.484 38.4818 155.368 38.4876 155.22 38.4876C154.857 38.4876 154.594 38.3591 154.431 38.1021C154.345 37.9658 154.285 37.773 154.25 37.5238C154.036 37.8042 153.728 38.0476 153.327 38.254C152.926 38.4604 152.484 38.5636 152.001 38.5636C151.421 38.5636 150.945 38.3883 150.575 38.0378C150.209 37.6834 150.026 37.2414 150.026 36.7118C150.026 36.1315 150.207 35.6817 150.57 35.3624C150.932 35.043 151.407 34.8464 151.995 34.7724L153.672 34.5621ZM157.644 35.2981C157.644 35.9679 157.786 36.5287 158.07 36.9805C158.355 37.4322 158.81 37.6581 159.437 37.6581C159.924 37.6581 160.323 37.4498 160.635 37.0331C160.95 36.6125 161.108 36.0108 161.108 35.228C161.108 34.4374 160.946 33.8533 160.623 33.4755C160.3 33.0939 159.901 32.903 159.426 32.903C158.896 32.903 158.466 33.1056 158.135 33.5106C157.807 33.9156 157.644 34.5114 157.644 35.2981ZM159.227 31.9859C159.706 31.9859 160.107 32.0872 160.43 32.2897C160.617 32.4065 160.829 32.611 161.067 32.903V29.7427H162.078V38.3533H161.131V37.4829C160.886 37.8684 160.596 38.1469 160.261 38.3182C159.926 38.4896 159.542 38.5753 159.11 38.5753C158.413 38.5753 157.809 38.2832 157.299 37.699C156.789 37.111 156.534 36.3301 156.534 35.3565C156.534 34.4452 156.766 33.6566 157.229 32.9907C157.696 32.3208 158.362 31.9859 159.227 31.9859ZM169.45 37.6756C170.147 37.6756 170.624 37.4128 170.881 36.887C171.142 36.3574 171.272 35.7693 171.272 35.1229C171.272 34.5387 171.179 34.0636 170.992 33.6975C170.696 33.1211 170.186 32.8329 169.461 32.8329C168.819 32.8329 168.351 33.0783 168.059 33.569C167.767 34.0597 167.621 34.6516 167.621 35.3448C167.621 36.0108 167.767 36.5657 168.059 37.0097C168.351 37.4537 168.815 37.6756 169.45 37.6756ZM169.491 31.9158C170.297 31.9158 170.978 32.1845 171.535 32.722C172.092 33.2594 172.371 34.05 172.371 35.0937C172.371 36.1023 172.125 36.9357 171.634 37.5939C171.144 38.252 170.382 38.5811 169.35 38.5811C168.49 38.5811 167.806 38.291 167.3 37.7107C166.794 37.1265 166.541 36.3438 166.541 35.3624C166.541 34.3109 166.807 33.4736 167.341 32.8505C167.874 32.2274 168.591 31.9158 169.491 31.9158ZM173.626 32.0969H174.625V32.9848C174.921 32.6188 175.235 32.3559 175.566 32.1962C175.897 32.0365 176.265 31.9567 176.67 31.9567C177.558 31.9567 178.158 32.2663 178.469 32.8855C178.641 33.2243 178.726 33.7092 178.726 34.3401V38.3533H177.657V34.4102C177.657 34.0285 177.601 33.7209 177.488 33.4872C177.301 33.0978 176.962 32.903 176.471 32.903C176.222 32.903 176.018 32.9284 175.858 32.979C175.57 33.0647 175.317 33.236 175.099 33.4931C174.923 33.6995 174.808 33.9136 174.754 34.1356C174.703 34.3537 174.678 34.6672 174.678 35.0761V38.3533H173.626V32.0969ZM183.826 30.3503H184.889V32.0969H185.888V32.9556H184.889V37.0389C184.889 37.257 184.963 37.403 185.111 37.477C185.193 37.5199 185.329 37.5413 185.52 37.5413C185.571 37.5413 185.625 37.5413 185.684 37.5413C185.742 37.5374 185.81 37.5316 185.888 37.5238V38.3533C185.767 38.3883 185.641 38.4136 185.508 38.4292C185.38 38.4448 185.24 38.4526 185.088 38.4526C184.597 38.4526 184.264 38.328 184.089 38.0787C183.914 37.8256 183.826 37.4984 183.826 37.0973V32.9556H182.979V32.0969H183.826V30.3503ZM186.945 29.7427H187.997V32.9439C188.246 32.6285 188.47 32.4065 188.669 32.278C189.007 32.056 189.43 31.945 189.936 31.945C190.844 31.945 191.459 32.2624 191.782 32.8972C191.957 33.2438 192.045 33.7248 192.045 34.3401V38.3533H190.964V34.4102C190.964 33.9506 190.906 33.6138 190.789 33.3996C190.598 33.0569 190.24 32.8855 189.714 32.8855C189.278 32.8855 188.883 33.0355 188.528 33.3353C188.174 33.6352 187.997 34.2018 187.997 35.0352V38.3533H186.945V29.7427ZM196.21 31.9567C196.654 31.9567 197.084 32.0619 197.501 32.2722C197.918 32.4786 198.235 32.7473 198.453 33.0783C198.664 33.3937 198.804 33.7618 198.874 34.1824C198.936 34.4705 198.967 34.9301 198.967 35.561H194.382C194.401 36.1958 194.551 36.7059 194.832 37.0915C195.112 37.4731 195.546 37.664 196.134 37.664C196.683 37.664 197.121 37.4829 197.449 37.1207C197.635 36.9104 197.768 36.667 197.846 36.3905H198.88C198.852 36.6203 198.761 36.8773 198.605 37.1616C198.453 37.442 198.282 37.6718 198.091 37.8509C197.772 38.1624 197.377 38.3727 196.905 38.4818C196.652 38.5441 196.366 38.5753 196.047 38.5753C195.268 38.5753 194.608 38.2929 194.066 37.7282C193.525 37.1596 193.254 36.3652 193.254 35.3448C193.254 34.3401 193.527 33.5242 194.072 32.8972C194.617 32.2702 195.33 31.9567 196.21 31.9567ZM197.887 34.7256C197.844 34.27 197.745 33.9059 197.589 33.6332C197.301 33.127 196.82 32.8738 196.146 32.8738C195.663 32.8738 195.258 33.0491 194.931 33.3996C194.604 33.7462 194.43 34.1882 194.411 34.7256H197.887Z" fill="#1B2021"/>
<defs>
<filter id="filter0_d_2_5395" x="0.540925" y="0.0454721" width="275.909" height="102.379" filterUnits="userSpaceOnUse" color-interpolation-filters="sRGB">
<feFlood flood-opacity="0" result="BackgroundImageFix"/>
<feColorMatrix in="SourceAlpha" type="matrix" values="0 0 0 0 0 0 0 0 0 0 0 0 0 0 0 0 0 0 127 0" result="hardAlpha"/>
<feOffset dx="1.49545"/>
<feGaussianBlur stdDeviation="7.47726"/>
<feComposite in2="hardAlpha" operator="out"/>
<feColorMatrix type="matrix" values="0 0 0 0 0 0 0 0 0 0 0 0 0 0 0 0 0 0 0.25 0"/>
<feBlend mode="normal" in2="BackgroundImageFix" result="effect1_dropShadow_2_5395"/>
<feBlend mode="normal" in="SourceGraphic" in2="effect1_dropShadow_2_5395" result="shape"/>
</filter>
</defs>
</svg>
