<svg width="48" height="43" viewBox="0 0 48 43" fill="none" xmlns="http://www.w3.org/2000/svg">
<path d="M33.4576 36.2065L32.1669 26.4156C31.9839 25.0288 31.2725 23.7531 30.1665 22.8283C29.0604 21.9036 27.6358 21.3935 26.1607 21.394H21.7155C20.241 21.3944 18.8175 21.9049 17.7122 22.8296C16.607 23.7542 15.8962 25.0294 15.7134 26.4156L14.4206 36.2065C14.3496 36.7444 14.4003 37.2905 14.5692 37.8084C14.7381 38.3264 15.0213 38.8043 15.4002 39.2106C15.779 39.6169 16.2447 39.9421 16.7664 40.1648C17.2881 40.3874 17.8539 40.5024 18.426 40.502H29.4542C30.0262 40.5021 30.5917 40.3869 31.1132 40.1642C31.6346 39.9414 32.1001 39.6161 32.4787 39.2099C32.8573 38.8037 33.1404 38.3258 33.3092 37.808C33.478 37.2902 33.5286 36.7443 33.4576 36.2065V36.2065Z" stroke="white" stroke-width="3.43325" stroke-linecap="round" stroke-linejoin="round"/>
<path d="M23.9401 13.7504C27.2818 13.7504 29.9907 11.1839 29.9907 8.01802C29.9907 4.85212 27.2818 2.28564 23.9401 2.28564C20.5985 2.28564 17.8896 4.85212 17.8896 8.01802C17.8896 11.1839 20.5985 13.7504 23.9401 13.7504Z" stroke="white" stroke-width="3.43325"/>
<path d="M7.80533 19.483C10.0331 19.483 11.839 17.772 11.839 15.6614C11.839 13.5508 10.0331 11.8398 7.80533 11.8398C5.57757 11.8398 3.77162 13.5508 3.77162 15.6614C3.77162 17.772 5.57757 19.483 7.80533 19.483Z" stroke="white" stroke-width="3.43325"/>
<path d="M40.075 19.483C42.3027 19.483 44.1087 17.772 44.1087 15.6614C44.1087 13.5508 42.3027 11.8398 40.075 11.8398C37.8472 11.8398 36.0413 13.5508 36.0413 15.6614C36.0413 17.772 37.8472 19.483 40.075 19.483Z" stroke="white" stroke-width="3.43325"/>
<path d="M40.075 25.2153H40.6921C41.647 25.2152 42.5709 25.536 43.2995 26.1207C44.0282 26.7054 44.5143 27.5159 44.6714 28.4083L45.343 32.2299C45.4394 32.7774 45.4087 33.3382 45.2531 33.8734C45.0975 34.4085 44.8207 34.9052 44.442 35.3287C44.0633 35.7522 43.5917 36.0925 43.0601 36.3259C42.5285 36.5593 41.9496 36.6802 41.3637 36.6801H34.0244M7.80532 25.2153H7.18816C6.2333 25.2152 5.30937 25.536 4.58072 26.1207C3.85208 26.7054 3.36598 27.5159 3.20891 28.4083L2.5373 32.2299C2.44092 32.7774 2.47159 33.3382 2.62719 33.8734C2.78278 34.4085 3.05956 34.9052 3.43828 35.3287C3.817 35.7522 4.28856 36.0925 4.82016 36.3259C5.35176 36.5593 5.93065 36.6802 6.51655 36.6801H13.8559L7.80532 25.2153Z" stroke="white" stroke-width="3.43325" stroke-linecap="round" stroke-linejoin="round"/>
</svg>
