<svg width="17" height="17" viewBox="0 0 17 17" fill="none" xmlns="http://www.w3.org/2000/svg">
<g clip-path="url(#clip0_133_37981)">
<path d="M1.15632 8.07076V14.1542H3.73182L3.86187 14.1695C6.25292 14.7271 7.83732 15.1292 8.62697 15.3782C9.67587 15.7089 10.0669 15.7896 10.7783 15.8372C11.3104 15.8738 11.9148 15.6689 12.1902 15.3884C12.3423 15.2337 12.4562 14.9158 12.5013 14.4228C12.5106 14.3194 12.5476 14.2205 12.6083 14.1363C12.669 14.0521 12.7512 13.9858 12.8464 13.9443C13.058 13.8525 13.234 13.7029 13.381 13.4853C13.517 13.2864 13.6054 12.9158 13.6216 12.3794C13.6244 12.2808 13.6524 12.1846 13.7028 12.0998C13.7532 12.015 13.8244 11.9445 13.9097 11.8949C14.4044 11.6085 14.6492 11.2855 14.7002 10.9064C14.7563 10.4873 14.6203 10.0156 14.2642 9.47836C14.1806 9.35238 14.1495 9.19876 14.1774 9.05019C14.2054 8.90161 14.2902 8.76979 14.4138 8.68277C14.7546 8.44307 14.9416 8.10987 14.9884 7.63726C15.0632 6.88416 14.5829 6.32742 13.4958 6.21607C12.5275 6.1203 11.5499 6.20182 10.6109 6.45662C10.5044 6.48445 10.3921 6.48129 10.2873 6.44749C10.1825 6.4137 10.0896 6.35068 10.0194 6.26585C9.94921 6.18102 9.90472 6.07792 9.89114 5.96866C9.87757 5.8594 9.89548 5.74854 9.94277 5.64912C10.3678 4.74982 10.6041 4.00777 10.6593 3.43317C10.7316 2.67072 10.5556 2.11822 10.1442 1.66262C9.83227 1.31752 9.33332 1.12032 9.14632 1.16112C8.89982 1.21382 8.73917 1.35662 8.53007 1.85642C8.40682 2.15222 8.34732 2.40382 8.24532 2.99117C8.14757 3.54877 8.09402 3.80037 7.98267 4.13017C7.64692 5.12977 6.82327 6.16592 5.71742 6.88077C4.94239 7.38117 4.10242 7.77299 3.22097 8.04527C3.16591 8.06224 3.1086 8.07084 3.05097 8.07076H1.15632ZM1.12062 15.3128C0.846074 15.3204 0.599574 15.2592 0.393024 15.1147C0.129524 14.9303 0.0054242 14.6396 0.0028742 14.3047L0.0054242 8.08011C-0.0234758 7.74861 0.0742742 7.44431 0.305474 7.21821C0.522224 7.00571 0.805274 6.90542 1.10447 6.91222H2.96172C3.713 6.67283 4.42926 6.335 5.09182 5.90752C5.98262 5.33122 6.63882 4.50502 6.88957 3.76042C6.97542 3.50372 7.02132 3.29122 7.10802 2.79142C7.22532 2.12077 7.29842 1.80882 7.46672 1.40762C7.81522 0.572916 8.27252 0.164916 8.90322 0.0280656C9.52372 -0.106234 10.4273 0.251616 10.9985 0.884016C11.6317 1.58442 11.9114 2.46077 11.8077 3.54367C11.7635 4.00947 11.6343 4.53052 11.4218 5.11107C12.1475 5.00531 12.8835 4.98932 13.6131 5.06347C15.319 5.23772 16.277 6.34867 16.1376 7.75287C16.0764 8.35807 15.8571 8.87232 15.4839 9.27606C15.7976 9.88041 15.9225 10.478 15.8443 11.0611C15.7542 11.7326 15.3802 12.2919 14.758 12.7262C14.7096 13.3153 14.5744 13.7853 14.3347 14.1372C14.1459 14.4215 13.8994 14.663 13.6114 14.8461C13.5196 15.4275 13.3266 15.8823 13.0113 16.2019C12.4885 16.734 11.5544 17.051 10.701 16.9932C9.89092 16.9388 9.41152 16.8402 8.28102 16.4832C7.53557 16.2478 5.99197 15.8568 3.66552 15.3128H1.11977H1.12062ZM2.56647 7.80642C2.56625 7.73037 2.58104 7.65503 2.60998 7.5847C2.63893 7.51438 2.68147 7.45046 2.73516 7.39661C2.78886 7.34276 2.85265 7.30003 2.92289 7.27087C2.99313 7.24172 3.06843 7.22671 3.14447 7.22672C3.22038 7.22694 3.2955 7.24211 3.36554 7.27136C3.43558 7.30062 3.49917 7.34338 3.55268 7.39721C3.6062 7.45104 3.64859 7.51488 3.67743 7.58509C3.70627 7.65531 3.721 7.73051 3.72077 7.80642V14.3327C3.72089 14.4086 3.70605 14.4838 3.6771 14.554C3.64816 14.6241 3.60568 14.6879 3.55208 14.7417C3.49849 14.7954 3.43483 14.8381 3.36475 14.8672C3.29467 14.8964 3.21953 14.9115 3.14362 14.9116C3.06772 14.9115 2.99258 14.8964 2.9225 14.8672C2.85241 14.8381 2.78876 14.7954 2.73516 14.7417C2.68157 14.6879 2.63909 14.6241 2.61015 14.554C2.5812 14.4838 2.56636 14.4086 2.56647 14.3327V7.80642Z" fill="black"/>
</g>
<defs>
<clipPath id="clip0_133_37981">
<rect width="17" height="17" fill="white"/>
</clipPath>
</defs>
</svg>
