<svg width="250" height="82" viewBox="0 0 250 82" fill="none" xmlns="http://www.w3.org/2000/svg">
<path d="M75.2378 51.5699V56.7665H79.8175C80.7274 56.7665 81.4097 56.6615 81.8647 56.4515C82.6695 56.0841 83.0719 55.358 83.0719 54.2732C83.0719 53.1009 82.6826 52.3136 81.904 51.9111C81.4666 51.6837 80.8105 51.5699 79.9356 51.5699H75.2378ZM80.7755 48.2106C82.1315 48.2368 83.1725 48.403 83.8987 48.7092C84.6335 49.0154 85.2546 49.466 85.7621 50.0609C86.182 50.5508 86.5144 51.0932 86.7594 51.6881C87.0043 52.2829 87.1268 52.9609 87.1268 53.722C87.1268 54.6406 86.895 55.5461 86.4313 56.4384C85.9676 57.322 85.2022 57.9475 84.1349 58.3149C85.0272 58.6736 85.6571 59.1854 86.0245 59.8503C86.4007 60.5064 86.5888 61.5125 86.5888 62.8684V64.1676C86.5888 65.0512 86.6238 65.6504 86.6938 65.9654C86.7987 66.464 87.0437 66.8315 87.4286 67.0677V67.5532H82.9801C82.8576 67.1245 82.7701 66.779 82.7176 66.5165C82.6126 65.9741 82.5558 65.4186 82.547 64.85L82.5208 63.0522C82.5033 61.8186 82.2758 60.9963 81.8384 60.5851C81.4097 60.174 80.6005 59.9684 79.4107 59.9684H75.2378V67.5532H71.2879V48.2106H80.7755ZM95.9583 55.9529C95.0922 55.9529 94.4185 56.2241 93.9374 56.7665C93.465 57.3089 93.1675 58.0437 93.0451 58.9711H98.8583C98.7971 57.9825 98.4953 57.2345 97.9529 56.7271C97.4192 56.2109 96.7544 55.9529 95.9583 55.9529ZM95.9583 52.8691C97.148 52.8691 98.2197 53.0922 99.1733 53.5383C100.127 53.9845 100.914 54.6887 101.535 55.6511C102.095 56.4996 102.458 57.4838 102.625 58.6036C102.721 59.2598 102.76 60.2046 102.743 61.4381H92.9532C93.0057 62.8728 93.4562 63.8789 94.3048 64.4563C94.821 64.815 95.4421 64.9943 96.1682 64.9943C96.9381 64.9943 97.5636 64.7756 98.0447 64.3382C98.3072 64.102 98.539 63.7739 98.7402 63.354H102.559C102.463 64.2026 102.021 65.0643 101.234 65.9391C100.009 67.3301 98.2941 68.0256 96.0895 68.0256C94.2698 68.0256 92.6645 67.4395 91.2735 66.2672C89.8825 65.0949 89.187 63.1878 89.187 60.5458C89.187 58.07 89.8125 56.1716 91.0636 54.8506C92.3233 53.5296 93.9549 52.8691 95.9583 52.8691ZM115.13 60.4014C115.13 59.2991 114.877 58.3237 114.369 57.4751C113.871 56.6265 113.057 56.2022 111.928 56.2022C110.572 56.2022 109.641 56.8452 109.133 58.1312C108.871 58.8136 108.74 59.6797 108.74 60.7295C108.74 62.3917 109.181 63.5596 110.065 64.2332C110.59 64.6269 111.211 64.8237 111.928 64.8237C112.969 64.8237 113.761 64.4213 114.304 63.6164C114.855 62.8116 115.13 61.7399 115.13 60.4014ZM113.004 52.9347C114.675 52.9347 116.088 53.5514 117.243 54.785C118.407 56.0185 118.988 57.8294 118.988 60.2177C118.988 62.7372 118.42 64.6575 117.282 65.9785C116.154 67.2995 114.697 67.96 112.913 67.96C111.775 67.96 110.83 67.6757 110.078 67.107C109.667 66.7921 109.265 66.3328 108.871 65.7292V73.1828H105.17V53.2496H108.753V55.3624C109.155 54.7412 109.584 54.2513 110.039 53.8926C110.87 53.254 111.858 52.9347 113.004 52.9347ZM129.473 52.9084C129.543 52.9084 129.6 52.9128 129.644 52.9216C129.696 52.9216 129.806 52.9259 129.972 52.9347V56.7665C129.736 56.7402 129.526 56.7227 129.342 56.714C129.158 56.7052 129.01 56.7009 128.896 56.7009C127.391 56.7009 126.381 57.1908 125.865 58.1706C125.576 58.7217 125.431 59.5703 125.431 60.7164V67.5532H121.665V53.2496H125.235V55.7429C125.812 54.7893 126.315 54.1376 126.744 53.7877C127.444 53.2015 128.353 52.9084 129.473 52.9084ZM137.819 55.9529C136.953 55.9529 136.279 56.2241 135.798 56.7665C135.326 57.3089 135.028 58.0437 134.906 58.9711H140.719C140.658 57.9825 140.356 57.2345 139.814 56.7271C139.28 56.2109 138.615 55.9529 137.819 55.9529ZM137.819 52.8691C139.009 52.8691 140.081 53.0922 141.034 53.5383C141.988 53.9845 142.775 54.6887 143.396 55.6511C143.956 56.4996 144.319 57.4838 144.485 58.6036C144.582 59.2598 144.621 60.2046 144.603 61.4381H134.814C134.867 62.8728 135.317 63.8789 136.166 64.4563C136.682 64.815 137.303 64.9943 138.029 64.9943C138.799 64.9943 139.424 64.7756 139.906 64.3382C140.168 64.102 140.4 63.7739 140.601 63.354H144.42C144.324 64.2026 143.882 65.0643 143.094 65.9391C141.87 67.3301 140.155 68.0256 137.95 68.0256C136.131 68.0256 134.525 67.4395 133.134 66.2672C131.743 65.0949 131.048 63.1878 131.048 60.5458C131.048 58.07 131.673 56.1716 132.924 54.8506C134.184 53.5296 135.816 52.8691 137.819 52.8691ZM146.323 56.2941V53.2496H157.923V56.3597L150.666 64.4825H158.172V67.5532H145.824V64.64L153.159 56.2941H146.323ZM166.216 55.9529C165.35 55.9529 164.677 56.2241 164.195 56.7665C163.723 57.3089 163.426 58.0437 163.303 58.9711H169.116C169.055 57.9825 168.753 57.2345 168.211 56.7271C167.677 56.2109 167.012 55.9529 166.216 55.9529ZM166.216 52.8691C167.406 52.8691 168.478 53.0922 169.431 53.5383C170.385 53.9845 171.172 54.6887 171.793 55.6511C172.353 56.4996 172.716 57.4838 172.883 58.6036C172.979 59.2598 173.018 60.2046 173.001 61.4381H163.211C163.264 62.8728 163.714 63.8789 164.563 64.4563C165.079 64.815 165.7 64.9943 166.426 64.9943C167.196 64.9943 167.822 64.7756 168.303 64.3382C168.565 64.102 168.797 63.7739 168.998 63.354H172.817C172.721 64.2026 172.279 65.0643 171.492 65.9391C170.267 67.3301 168.552 68.0256 166.348 68.0256C164.528 68.0256 162.923 67.4395 161.532 66.2672C160.141 65.0949 159.445 63.1878 159.445 60.5458C159.445 58.07 160.071 56.1716 161.322 54.8506C162.581 53.5296 164.213 52.8691 166.216 52.8691ZM183.459 52.9084C184.938 52.9084 186.145 53.2977 187.081 54.0764C188.026 54.8462 188.498 56.1278 188.498 57.9213V67.5532H184.667V58.853C184.667 58.1006 184.566 57.5232 184.365 57.1208C183.997 56.3859 183.297 56.0185 182.265 56.0185C180.997 56.0185 180.126 56.5565 179.654 57.6326C179.409 58.2012 179.286 58.9273 179.286 59.8109V67.5532H175.56V53.2759H179.168V55.3624C179.649 54.6275 180.104 54.0982 180.533 53.7745C181.303 53.1971 182.278 52.9084 183.459 52.9084ZM190.493 56.0447V53.3809H192.488V49.3916H196.188V53.3809H198.511V56.0447H196.188V63.6033C196.188 64.1894 196.263 64.5569 196.411 64.7056C196.56 64.8456 197.015 64.9156 197.776 64.9156C197.89 64.9156 198.008 64.9156 198.13 64.9156C198.262 64.9068 198.388 64.8981 198.511 64.8893V67.6844L196.739 67.75C194.972 67.8113 193.765 67.5051 193.117 66.8315C192.698 66.4028 192.488 65.7423 192.488 64.85V56.0447H190.493Z" fill="white"/>
<path d="M214.035 48.2106H219.848V67.5532H216.082V54.47C216.082 54.0938 216.086 53.5689 216.095 52.8953C216.104 52.213 216.108 51.6881 216.108 51.3206L212.447 67.5532H208.523L204.888 51.3206C204.888 51.6881 204.893 52.213 204.902 52.8953C204.91 53.5689 204.915 54.0938 204.915 54.47V67.5532H201.148V48.2106H207.027L210.544 63.4196L214.035 48.2106ZM228.942 55.9529C228.076 55.9529 227.402 56.2241 226.921 56.7665C226.449 57.3089 226.151 58.0437 226.029 58.9711H231.842C231.781 57.9825 231.479 57.2345 230.937 56.7271C230.403 56.2109 229.738 55.9529 228.942 55.9529ZM228.942 52.8691C230.132 52.8691 231.203 53.0922 232.157 53.5383C233.111 53.9845 233.898 54.6887 234.519 55.6511C235.079 56.4996 235.442 57.4838 235.608 58.6036C235.704 59.2598 235.744 60.2046 235.726 61.4381H225.937C225.989 62.8728 226.44 63.8789 227.289 64.4563C227.805 64.815 228.426 64.9943 229.152 64.9943C229.922 64.9943 230.547 64.7756 231.028 64.3382C231.291 64.102 231.523 63.7739 231.724 63.354H235.543C235.446 64.2026 235.005 65.0643 234.217 65.9391C232.992 67.3301 231.278 68.0256 229.073 68.0256C227.254 68.0256 225.648 67.4395 224.257 66.2672C222.866 65.0949 222.171 63.1878 222.171 60.5458C222.171 58.07 222.796 56.1716 224.047 54.8506C225.307 53.5296 226.939 52.8691 228.942 52.8691Z" fill="#1B57ED"/>
<path d="M41.8826 41.6783C49.5413 41.6783 55.7735 35.4517 55.7735 27.7931V18.4306C55.7735 14.0607 59.1868 10.5002 63.3869 10.5002H64.5982C63.9586 9.32282 63.5906 7.97562 63.5906 6.53785C63.5906 5.73406 63.7095 4.96423 63.9246 4.22836H63.3869C55.7622 4.22836 49.5526 10.5511 49.5016 18.3343C49.5016 18.3513 49.496 18.3683 49.496 18.3796V18.4249V23.1231V27.7817C49.496 31.9818 46.077 35.4008 41.8769 35.4008C41.8769 35.4008 40.0995 35.4008 38.5486 35.4008C38.8542 36.3574 39.024 37.382 39.024 38.4405C39.024 39.5726 38.8259 40.6594 38.475 41.6726H41.8826V41.6783Z" fill="white"/>
<path d="M80.7641 4.22836H79.9094C80.1188 4.96423 80.2434 5.73406 80.2434 6.53785C80.2434 7.96996 79.8811 9.32282 79.2415 10.5002H80.7641C85.1397 10.5002 88.6945 13.9191 88.6945 18.1192V27.9855C88.6945 32.3554 85.2812 35.9159 81.0755 35.9159H80.549L76.4282 40.0424V35.9159H65.8487C58.19 35.9159 51.9635 42.284 51.9635 50.1181V67.3826C51.9635 71.5827 48.5502 75.0017 44.3501 75.0017H19.9986V79.898L15.4588 75.0017H13.8852C9.68513 75.0017 6.27184 71.5827 6.27184 67.3826V49.2917C6.27184 45.0916 9.69079 41.6726 13.8852 41.6726H19.6872C19.3363 40.6594 19.1382 39.5726 19.1382 38.4405C19.1382 37.382 19.308 36.3631 19.6137 35.4008H13.8852C6.22656 35.4008 0 41.6273 0 49.286V67.377C0 75.0357 6.23222 81.2622 13.8852 81.2622H44.3557C52.0144 81.2622 58.241 75.0357 58.241 67.377V50.1124C58.241 45.7369 61.6599 42.1821 65.8544 42.1821H81.0811C88.7398 42.1821 94.9664 35.8083 94.9664 27.9799V18.1136C94.9664 10.4606 88.5926 4.22836 80.7641 4.22836Z" fill="white"/>
<path fill-rule="evenodd" clip-rule="evenodd" d="M31.5853 48.4596H26.8192C17.0604 48.4596 9.15271 55.8805 9.15271 65.0279V66.3807C9.15271 69.5676 11.7396 72.1544 14.9321 72.1544H15.4132L18.1416 75.0923V72.1544H43.4837C46.6706 72.1544 49.2574 69.5676 49.2574 66.3807V65.0279C49.2518 55.8748 41.344 48.4596 31.5853 48.4596Z" fill="#1B57ED"/>
<path fill-rule="evenodd" clip-rule="evenodd" d="M78.4491 6.53789C78.4491 2.92648 75.5226 0 71.9169 0C68.3055 0 65.3846 2.92648 65.3846 6.53789C65.3846 10.1436 68.3111 13.0758 71.9169 13.0758C75.5226 13.0758 78.4491 10.1493 78.4491 6.53789Z" fill="white"/>
<path fill-rule="evenodd" clip-rule="evenodd" d="M72.3245 14.9154H71.5093C63.9695 14.9154 57.8562 20.6495 57.8562 27.7195V28.7667C57.8562 31.229 59.8544 33.2272 62.3223 33.2272H78.0019V36.0291L80.8039 33.2272H81.5115C83.9738 33.2272 85.9776 31.229 85.9776 28.7667V27.7195C85.9719 20.6495 79.8643 14.9154 72.3245 14.9154Z" fill="white"/>
</svg>
