<svg width="35" height="38" viewBox="0 0 35 38" fill="none" xmlns="http://www.w3.org/2000/svg">
<path d="M17.6397 0.583496C25.3815 0.583496 31.7027 6.69053 31.9686 14.4407L31.9766 14.9204V22.7522L34.6146 28.7852C34.7467 29.0871 34.8148 29.413 34.8148 29.7425C34.8148 31.0621 33.745 32.132 32.4253 32.132L23.3745 32.1348C23.3745 35.302 20.8069 37.8696 17.6397 37.8696C14.5856 37.8696 12.0891 35.4822 11.9147 32.4718L11.9041 32.1305L2.87243 32.132C2.5449 32.132 2.22086 32.0646 1.92045 31.9341C0.710026 31.4084 0.154999 30.0009 0.68076 28.7905L3.30279 22.754V14.9202C3.30393 6.97796 9.71061 0.583496 17.6397 0.583496ZM20.5062 32.1305L14.7723 32.1348C14.7723 33.7184 16.0561 35.0022 17.6397 35.0022C19.1302 35.0022 20.355 33.865 20.494 32.411L20.5062 32.1305ZM17.6397 3.45088C11.2929 3.45088 6.17109 8.56296 6.17018 14.9204V23.3498L3.60104 29.2646H31.6948L29.1093 23.3517L29.1095 14.945L29.1023 14.5145C28.89 8.33343 23.8363 3.45088 17.6397 3.45088Z" fill="#ECF8FF"/>
</svg>
