<svg width="32" height="40" viewBox="0 0 32 40" fill="none" xmlns="http://www.w3.org/2000/svg">
<path d="M11.116 11.8746C11.3485 11.3207 11.7471 10.8464 12.261 10.5124C12.7748 10.1784 13.3803 10 14 10C14.6197 10 15.2252 10.1784 15.739 10.5124C16.2529 10.8464 16.6515 11.3207 16.884 11.8746C19.1842 12.4846 21.2132 13.8058 22.6593 15.6352C24.1054 17.4647 24.8886 19.7013 24.8887 22.0016V29.0463L27.7384 33.1679C27.8947 33.3938 27.9845 33.6563 27.9982 33.9275C28.0118 34.1987 27.9489 34.4684 27.816 34.7079C27.6832 34.9473 27.4854 35.1474 27.2438 35.287C27.0022 35.4265 26.7259 35.5002 26.4442 35.5001H19.3899C19.2026 36.7497 18.5547 37.8923 17.5648 38.7187C16.5749 39.5451 15.3094 40 14 40C12.6906 40 11.4251 39.5451 10.4352 38.7187C9.44531 37.8923 8.79738 36.7497 8.61009 35.5001H1.55576C1.27415 35.5002 0.997799 35.4265 0.756206 35.287C0.514614 35.1474 0.316839 34.9473 0.183981 34.7079C0.051124 34.4684 -0.011831 34.1987 0.00183218 33.9275C0.0154953 33.6563 0.105264 33.3938 0.261562 33.1679L3.11129 29.0463V22.0016C3.11129 17.1661 6.50235 13.0925 11.116 11.8746ZM11.8005 35.5001C11.9611 35.9391 12.259 36.3191 12.6531 36.588C13.0472 36.8568 13.518 37.0012 14.0008 37.0012C14.4835 37.0012 14.9544 36.8568 15.3485 36.588C15.7425 36.3191 16.0404 35.9391 16.2011 35.5001H11.7989H11.8005ZM14 14.5023C11.9372 14.5023 9.95896 15.2924 8.50037 16.6988C7.04178 18.1052 6.22235 20.0126 6.22235 22.0016V29.5008C6.22242 29.797 6.13149 30.0867 5.96102 30.3332L4.46305 32.5005H23.5354L22.0374 30.3332C21.8675 30.0865 21.7771 29.7969 21.7776 29.5008V22.0016C21.7776 20.0126 20.9582 18.1052 19.4996 16.6988C18.041 15.2924 16.0628 14.5023 14 14.5023Z" fill="#050505"/>
<rect x="18" width="13.8066" height="13.8822" rx="6.90332" fill="#FF4444"/>
<path d="M25.418 8.01953V5.48438L23.625 8.01953H25.418ZM25.4297 10V8.63281H22.9766V7.94531L25.5391 4.39062H26.1328V8.01953H26.957V8.63281H26.1328V10H25.4297Z" fill="white"/>
</svg>
