<svg width="36" height="30" viewBox="0 0 36 30" fill="none" xmlns="http://www.w3.org/2000/svg">
<path fill-rule="evenodd" clip-rule="evenodd" d="M13.7462 14.1934C13.7462 12.53 12.3983 11.18 10.7349 11.18C9.07146 11.18 7.72359 12.5279 7.72359 14.1934C7.72359 15.8547 9.07146 17.2047 10.7349 17.2047C12.3983 17.2047 13.7462 15.8547 13.7462 14.1934Z" fill="#1B57ED"/>
<path d="M15.4619 15.3866C18.2893 15.3866 20.59 13.0879 20.59 10.2605V6.80412C20.59 5.19086 21.8501 3.87642 23.4007 3.87642H23.8479C23.6118 3.44176 23.4759 2.94441 23.4759 2.41362C23.4759 2.11688 23.5198 1.83268 23.5992 1.56101H23.4007C20.5859 1.56101 18.2934 3.89523 18.2746 6.76859C18.2746 6.77486 18.2725 6.78113 18.2725 6.78531V10.2563C18.2725 11.8069 17.0104 13.0691 15.4598 13.0691C15.4598 13.0691 14.8036 13.0691 14.231 13.0691C14.3439 13.4223 14.4066 13.8005 14.4066 14.1913C14.4066 14.6092 14.3334 15.0104 14.2039 15.3845H15.4619V15.3866Z" fill="#F1F1F2"/>
<path d="M29.8161 1.56101H29.5006C29.5779 1.83268 29.6239 2.11688 29.6239 2.41362C29.6239 2.94232 29.4901 3.44176 29.254 3.87642H29.8161C31.4315 3.87642 32.7438 5.13861 32.7438 6.68918V10.3316C32.7438 11.9448 31.4837 13.2593 29.931 13.2593H29.7367L28.2154 14.7827V13.2593H24.3097C21.4823 13.2593 19.1836 15.6102 19.1836 18.5024V24.876C19.1836 26.4266 17.9235 27.6888 16.3729 27.6888H7.38298V29.4964L5.70702 27.6888H5.12608C3.57551 27.6888 2.31541 26.4266 2.31541 24.876V18.1973C2.31541 16.6467 3.5776 15.3845 5.12608 15.3845H7.26804C7.13848 15.0104 7.06534 14.6092 7.06534 14.1913C7.06534 13.8005 7.12803 13.4243 7.24087 13.0691H5.12608C2.29869 13.0691 0 15.3678 0 18.1952V24.8739C0 27.7013 2.30078 30 5.12608 30H16.375C19.2024 30 21.5011 27.7013 21.5011 24.8739V18.5003C21.5011 16.8849 22.7633 15.5726 24.3118 15.5726H29.9331C32.7605 15.5726 35.0592 13.2196 35.0592 10.3295V6.68709C35.0592 3.86179 32.7062 1.56101 29.8161 1.56101Z" fill="#F1F1F2"/>
<path fill-rule="evenodd" clip-rule="evenodd" d="M11.6604 17.8901H9.90082C6.29814 17.8901 3.3788 20.6297 3.3788 24.0067V24.5062C3.3788 25.6827 4.3338 26.6377 5.51241 26.6377H5.69003L6.69728 27.7222V26.6377H16.0529C17.2295 26.6377 18.1845 25.6827 18.1845 24.5062V24.0067C18.1824 20.6276 15.263 17.8901 11.6604 17.8901Z" fill="#1B57ED"/>
<path fill-rule="evenodd" clip-rule="evenodd" d="M28.9618 2.41363C28.9618 1.08039 27.8814 0 26.5503 0C25.217 0 24.1387 1.08039 24.1387 2.41363C24.1387 3.74478 25.2191 4.82725 26.5503 4.82725C27.8814 4.82725 28.9618 3.74687 28.9618 2.41363Z" fill="#F1F1F2"/>
<path fill-rule="evenodd" clip-rule="evenodd" d="M26.7005 5.50641H26.3995C23.616 5.50641 21.3591 7.6233 21.3591 10.2334V10.62C21.3591 11.529 22.0968 12.2667 23.0079 12.2667H28.7964V13.3011L29.8309 12.2667H30.0921C31.0011 12.2667 31.7409 11.529 31.7409 10.62V10.2334C31.7388 7.6233 29.484 5.50641 26.7005 5.50641Z" fill="#F1F1F2"/>
</svg>
