<svg width="40" height="38" viewBox="0 0 40 38" fill="none" xmlns="http://www.w3.org/2000/svg">
<path d="M19.7943 0.19873C21.2397 0.19873 22.6259 0.742712 23.6479 1.71101C24.67 2.6793 25.2442 3.99259 25.2442 5.36196V32.5627C25.2442 33.2408 25.1032 33.9122 24.8293 34.5386C24.5554 35.1651 24.154 35.7342 23.6479 36.2137C23.1419 36.6931 22.5411 37.0735 21.8799 37.3329C21.2187 37.5924 20.51 37.726 19.7943 37.726C19.0787 37.726 18.37 37.5924 17.7088 37.3329C17.0476 37.0735 16.4468 36.6931 15.9407 36.2137C15.4347 35.7342 15.0332 35.1651 14.7594 34.5386C14.4855 33.9122 14.3445 33.2408 14.3445 32.5627V5.36196C14.3445 3.99259 14.9187 2.6793 15.9407 1.71101C16.9628 0.742712 18.349 0.19873 19.7943 0.19873ZM33.6565 9.5796C35.1019 9.5796 36.4881 10.1236 37.5101 11.0919C38.5322 12.0602 39.1064 13.3735 39.1064 14.7428V32.5627C39.1064 33.9321 38.5322 35.2454 37.5101 36.2137C36.4881 37.182 35.1019 37.726 33.6565 37.726C32.2112 37.726 30.825 37.182 29.8029 36.2137C28.7809 35.2454 28.2067 33.9321 28.2067 32.5627V14.7428C28.2067 13.3735 28.7809 12.0602 29.8029 11.0919C30.825 10.1236 32.2112 9.5796 33.6565 9.5796ZM5.93215 18.9605C6.64783 18.9605 7.35651 19.094 8.01771 19.3535C8.67891 19.613 9.27969 19.9933 9.78576 20.4728C10.2918 20.9522 10.6933 21.5214 10.9671 22.1478C11.241 22.7743 11.382 23.4457 11.382 24.1237V32.5627C11.382 33.9321 10.8078 35.2454 9.78576 36.2137C8.76372 37.182 7.37753 37.726 5.93215 37.726C4.48677 37.726 3.10059 37.182 2.07855 36.2137C1.05651 35.2454 0.48233 33.9321 0.48233 32.5627V24.1237C0.48233 22.7543 1.05651 21.441 2.07855 20.4728C3.10059 19.5045 4.48677 18.9605 5.93215 18.9605ZM19.7943 3.01299C18.424 3.01299 17.315 4.06365 17.315 5.36196V32.5627C17.315 33.1857 17.5762 33.7832 18.0412 34.2237C18.5061 34.6642 19.1368 34.9117 19.7943 34.9117C20.4519 34.9117 21.0825 34.6642 21.5475 34.2237C22.0125 33.7832 22.2737 33.1857 22.2737 32.5627V5.36196C22.2737 4.06365 21.1647 3.01299 19.7943 3.01299ZM33.6565 12.3939C32.2881 12.3939 31.1772 13.4445 31.1772 14.7428V32.5627C31.1772 33.1857 31.4384 33.7832 31.9034 34.2237C32.3683 34.6642 32.999 34.9117 33.6565 34.9117C34.3141 34.9117 34.9447 34.6642 35.4097 34.2237C35.8747 33.7832 36.1359 33.1857 36.1359 32.5627V14.7428C36.1359 13.4445 35.0269 12.3939 33.6565 12.3939ZM5.93215 21.7747C4.56177 21.7747 3.4528 22.8254 3.4528 24.1237V32.5627C3.4528 33.1857 3.71402 33.7832 4.17899 34.2237C4.64395 34.6642 5.27459 34.9117 5.93215 34.9117C6.58972 34.9117 7.22035 34.6642 7.68532 34.2237C8.15029 33.7832 8.4115 33.1857 8.4115 32.5627V24.1237C8.4115 22.8254 7.30253 21.7747 5.93215 21.7747Z" fill="white"/>
</svg>
