<svg width="227" height="236" viewBox="0 0 227 236" fill="none" xmlns="http://www.w3.org/2000/svg">
<g opacity="0.51">
<path d="M212.562 235.113H14.4378C6.46722 235.113 0 228.652 0 220.675V14.4378C0 6.46722 6.46074 0 14.4378 0H212.562C220.533 0 227 6.46074 227 14.4378V220.675C226.994 228.646 220.533 235.113 212.562 235.113Z" fill="white"/>
</g>
<path d="M85.888 30.2302H29.1866V88.9533H85.888V30.2302ZM76.6668 79.4081H38.4079V39.782H76.6668V79.4081Z" fill="black"/>
<path d="M68.5991 48.1345H46.4757V71.0549H68.5991V48.1345Z" fill="black"/>
<path d="M141.112 30.2302V88.9533H197.813V30.2302H141.112ZM188.592 79.4081H150.333V39.782H188.592V79.4081Z" fill="black"/>
<path d="M182.313 48.1345H160.19V71.0549H182.313V48.1345Z" fill="black"/>
<path d="M29.1866 204.877H85.888V146.154H29.1866V204.877ZM38.4079 155.706H76.6668V195.332H38.4079V155.706Z" fill="black"/>
<path d="M68.5991 164.059H46.4757V186.979H68.5991V164.059Z" fill="black"/>
<path d="M38.5958 108.044H29.1866V117.783H38.5958V108.044Z" fill="black"/>
<path d="M48.018 108.044H38.6088V117.783H48.018V108.044Z" fill="black"/>
<path d="M48.018 98.6218H38.6088V108.362H48.018V98.6218Z" fill="black"/>
<path d="M57.4272 108.044H48.018V117.783H57.4272V108.044Z" fill="black"/>
<path d="M38.5958 127.38H29.1866V137.12H38.5958V127.38Z" fill="black"/>
<path d="M66.8299 127.38H57.4207V137.12H66.8299V127.38Z" fill="black"/>
<path d="M76.2391 117.641H66.8299V127.381H76.2391V117.641Z" fill="black"/>
<path d="M85.6418 127.38H76.2326V137.12H85.6418V127.38Z" fill="black"/>
<path d="M95.0511 127.38H85.6419V137.12H95.0511V127.38Z" fill="black"/>
<path d="M95.0511 117.641H85.6419V127.381H95.0511V117.641Z" fill="black"/>
<path d="M95.0511 107.902H85.6419V117.641H95.0511V107.902Z" fill="black"/>
<path d="M95.0511 98.6218H85.6419V108.362H95.0511V98.6218Z" fill="black"/>
<path d="M104.454 98.6218H95.0444V108.362H104.454V98.6218Z" fill="black"/>
<path d="M66.8299 107.902H57.4207V117.641H66.8299V107.902Z" fill="black"/>
<path d="M66.8299 98.6218H57.4207V108.362H66.8299V98.6218Z" fill="black"/>
<path d="M76.2391 98.6218H66.8299V108.362H76.2391V98.6218Z" fill="black"/>
<path d="M48.018 127.38H38.6088V137.12H48.018V127.38Z" fill="black"/>
<path d="M57.4272 117.641H48.018V127.381H57.4272V117.641Z" fill="black"/>
<path d="M38.6153 117.641H29.2061V127.381H38.6153V117.641Z" fill="black"/>
<path d="M57.4272 127.38H48.018V137.12H57.4272V127.38Z" fill="black"/>
<path d="M104.441 137.269H95.0316V147.009H104.441V137.269Z" fill="black"/>
<path d="M113.863 137.269H104.454V147.009H113.863V137.269Z" fill="black"/>
<path d="M113.863 127.847H104.454V137.587H113.863V127.847Z" fill="black"/>
<path d="M104.454 118.107H95.0444V127.847H104.454V118.107Z" fill="black"/>
<path d="M123.266 108.361H113.857V118.101H123.266V108.361Z" fill="black"/>
<path d="M113.863 108.361H104.454V118.101H113.863V108.361Z" fill="black"/>
<path d="M113.863 118.107H104.454V127.847H113.863V118.107Z" fill="black"/>
<path d="M123.266 137.269H113.857V147.009H123.266V137.269Z" fill="black"/>
<path d="M104.441 156.613H95.0316V166.352H104.441V156.613Z" fill="black"/>
<path d="M132.675 156.613H123.265V166.352H132.675V156.613Z" fill="black"/>
<path d="M142.078 146.867H132.668V156.606H142.078V146.867Z" fill="black"/>
<path d="M151.487 156.613H142.077V166.352H151.487V156.613Z" fill="black"/>
<path d="M160.889 156.613H151.48V166.352H160.889V156.613Z" fill="black"/>
<path d="M160.889 146.867H151.48V156.606H160.889V146.867Z" fill="black"/>
<path d="M160.889 137.127H151.48V146.867H160.889V137.127Z" fill="black"/>
<path d="M160.889 128.313H151.48V138.053H160.889V128.313Z" fill="black"/>
<path d="M170.299 118.567H160.889V128.307H170.299V118.567Z" fill="black"/>
<path d="M132.675 137.127H123.265V146.867H132.675V137.127Z" fill="black"/>
<path d="M132.675 127.847H123.265V137.587H132.675V127.847Z" fill="black"/>
<path d="M142.078 127.847H132.668V137.587H142.078V127.847Z" fill="black"/>
<path d="M113.863 156.613H104.454V166.352H113.863V156.613Z" fill="black"/>
<path d="M123.266 146.867H113.857V156.606H123.266V146.867Z" fill="black"/>
<path d="M104.454 146.867H95.0444V156.606H104.454V146.867Z" fill="black"/>
<path d="M123.266 156.613H113.857V166.352H123.266V156.613Z" fill="black"/>
<path d="M122.893 40.3886V30.6489H113.484V40.3886H122.893Z" fill="black"/>
<path d="M131.992 50.145V40.4053H122.583V50.145H131.992Z" fill="black"/>
<path d="M131.988 59.8874V50.1477H122.579V59.8874H131.988Z" fill="black"/>
<path d="M104.221 69.6333V59.8936H94.8114V69.6333H104.221Z" fill="black"/>
<path d="M113.627 69.6293V59.8896H104.217V69.6293H113.627Z" fill="black"/>
<path d="M104.451 89.1137V79.374H95.0418V89.1137H104.451Z" fill="black"/>
<path d="M104.454 98.6152V88.8755H95.0446V98.6152H104.454Z" fill="black"/>
<path d="M113.86 98.6186V88.8789H104.451V98.6186H113.86Z" fill="black"/>
<path d="M123.266 98.615V88.8755H113.857V98.615H123.266Z" fill="black"/>
<path d="M132.672 98.6184V88.8789H123.263V98.6184H132.672Z" fill="black"/>
<path d="M132.669 108.361V98.6211H123.259V108.361H132.669Z" fill="black"/>
<path d="M142.074 108.357V98.6174H132.665V108.357H142.074Z" fill="black"/>
<path d="M142.077 118.1V108.36H132.668V118.1H142.077Z" fill="black"/>
<path d="M142.074 127.842V118.102H132.665V127.842H142.074Z" fill="black"/>
<path d="M160.891 156.613V166.353H170.3V156.613H160.891Z" fill="black"/>
<path d="M142.079 156.613V166.352H151.488V156.613H142.079Z" fill="black"/>
<path d="M170.294 146.875V156.614H179.703V146.875H170.294Z" fill="black"/>
<path d="M170.438 137.13V146.87H179.847V137.13H170.438Z" fill="black"/>
<path d="M161.338 137.129V146.868H170.747V137.129H161.338Z" fill="black"/>
<path d="M151.932 137.126V146.865H161.341V137.126H151.932Z" fill="black"/>
<path d="M170.298 128.317V138.056H179.707V128.317H170.298Z" fill="black"/>
<path d="M188.404 146.885V156.625H197.813V146.885H188.404Z" fill="black"/>
<path d="M179.703 108.829V118.569H189.112V108.829H179.703Z" fill="black"/>
<path d="M179.704 128.314V138.053H189.113V128.314H179.704Z" fill="black"/>
<path d="M188.401 118.57V128.309H197.81V118.57H188.401Z" fill="black"/>
<path d="M179.7 146.871V156.61H189.109V146.871H179.7Z" fill="black"/>
<path d="M188.405 128.312V138.052H197.814V128.312H188.405Z" fill="black"/>
<path d="M188.404 108.827V118.567H197.813V108.827H188.404Z" fill="black"/>
<path d="M179.699 99.0862V108.826H189.108V99.0862H179.699Z" fill="black"/>
<path d="M170.293 99.0901V108.83H179.702V99.0901H170.293Z" fill="black"/>
<path d="M160.887 99.0862V108.826H170.296V99.0862H160.887Z" fill="black"/>
<path d="M151.484 128.309V118.569H142.074V128.309H151.484Z" fill="black"/>
<path d="M104.454 175.781H95.0444V185.521H104.454V175.781Z" fill="black"/>
<path d="M113.863 195.118H104.454V204.858H113.863V195.118Z" fill="black"/>
<path d="M123.266 185.371H113.857V195.111H123.266V185.371Z" fill="black"/>
<path d="M132.675 195.118H123.265V204.858H132.675V195.118Z" fill="black"/>
<path d="M142.078 195.118H132.668V204.858H142.078V195.118Z" fill="black"/>
<path d="M142.078 185.371H132.668V195.111H142.078V185.371Z" fill="black"/>
<path d="M142.078 175.632H132.668V185.372H142.078V175.632Z" fill="black"/>
<path d="M113.863 175.632H104.454V185.372H113.863V175.632Z" fill="black"/>
<path d="M113.863 166.352H104.454V176.092H113.863V166.352Z" fill="black"/>
<path d="M123.266 166.352H113.857V176.092H123.266V166.352Z" fill="black"/>
<path d="M104.454 185.371H95.0444V195.111H104.454V185.371Z" fill="black"/>
<path d="M104.454 195.118H95.0444V204.858H104.454V195.118Z" fill="black"/>
<path d="M123.262 166.348V156.608H113.853V166.348H123.262Z" fill="black"/>
<path d="M142.078 195.118V204.858H151.487V195.118H142.078Z" fill="black"/>
<path d="M132.672 195.122V204.862H142.081V195.122H132.672Z" fill="black"/>
<path d="M123.266 195.118V204.858H132.675V195.118H123.266Z" fill="black"/>
<path d="M151.625 185.394V195.134H161.035V185.394H151.625Z" fill="black"/>
<path d="M160.891 195.118V204.858H170.3V195.118H160.891Z" fill="black"/>
<path d="M170.293 185.38V195.119H179.702V185.38H170.293Z" fill="black"/>
<path d="M179.703 195.119V204.859H189.112V195.119H179.703Z" fill="black"/>
<path d="M188.404 195.117V204.857H197.813V195.117H188.404Z" fill="black"/>
<path d="M188.4 185.375V195.115H197.809V185.375H188.4Z" fill="black"/>
<path d="M188.403 175.633V185.372H197.812V175.633H188.403Z" fill="black"/>
<path d="M179.702 175.635V185.375H189.111V175.635H179.702Z" fill="black"/>
<path d="M188.404 156.611V166.351H197.814V156.611H188.404Z" fill="black"/>
<path d="M179.698 165.891V175.631H189.107V165.891H179.698Z" fill="black"/>
<path d="M179.699 185.377V195.116H189.108V185.377H179.699Z" fill="black"/>
<path d="M151.625 175.636V185.375H161.034V175.636H151.625Z" fill="black"/>
<path d="M160.888 166.355V176.095H170.297V166.355H160.888Z" fill="black"/>
<path d="M142.525 175.635V185.375H151.934V175.635H142.525Z" fill="black"/>
<path d="M133.116 185.38V195.119H142.525V185.38H133.116Z" fill="black"/>
<path d="M133.119 175.637V185.377H142.528V175.637H133.119Z" fill="black"/>
<path d="M132.672 166.815V157.075H123.263V166.815H132.672Z" fill="black"/>
<path d="M151.481 118.566V108.827H142.072V118.566H151.481Z" fill="black"/>
<path d="M160.887 118.563V108.823H151.478V118.563H160.887Z" fill="black"/>
<path d="M131.993 40.3874V30.6477H122.583V40.3874H131.993Z" fill="black"/>
<path d="M131.994 79.3728V69.6331H122.584V79.3728H131.994Z" fill="black"/>
<path d="M104.221 50.1486V40.4089H94.8123V50.1486H104.221Z" fill="black"/>
<path d="M113.624 59.8874V50.1477H104.215V59.8874H113.624Z" fill="black"/>
<path d="M113.625 40.4018V30.6621H104.216V40.4018H113.625Z" fill="black"/>
</svg>
