<svg width="25" height="25" viewBox="0 0 25 25" fill="none" xmlns="http://www.w3.org/2000/svg">
<path d="M10.4167 18.7502C12.2656 18.7498 14.0613 18.1308 15.5177 16.9918L20.0969 21.571L21.5698 20.0981L16.9906 15.5189C18.1302 14.0623 18.7496 12.2662 18.75 10.4168C18.75 5.82204 15.0115 2.0835 10.4167 2.0835C5.82188 2.0835 2.08334 5.82204 2.08334 10.4168C2.08334 15.0116 5.82188 18.7502 10.4167 18.7502ZM10.4167 4.16683C13.8635 4.16683 16.6667 6.96995 16.6667 10.4168C16.6667 13.8637 13.8635 16.6668 10.4167 16.6668C6.96979 16.6668 4.16667 13.8637 4.16667 10.4168C4.16667 6.96995 6.96979 4.16683 10.4167 4.16683Z" fill="#7C7C7C"/>
</svg>
