<svg width="47" height="44" viewBox="0 0 47 44" fill="none" xmlns="http://www.w3.org/2000/svg">
<path d="M27.1024 39.6916H20.203C19.7707 39.6917 19.3513 39.5518 19.0145 39.295C18.6777 39.0383 18.4436 38.6802 18.3511 38.2802L17.5797 34.8969C16.5506 34.4697 15.5747 33.9355 14.6702 33.3041L11.1883 34.3546C10.7761 34.4791 10.3314 34.4663 9.92802 34.3184C9.52461 34.1704 9.18677 33.8961 8.9706 33.5411L5.51332 27.8827C5.29941 27.5274 5.21911 27.1138 5.28556 26.7096C5.35202 26.3054 5.56129 25.9346 5.87914 25.6577L8.58013 23.3232C8.4573 22.2657 8.4573 21.1987 8.58013 20.1412L5.87914 17.8121C5.56084 17.5351 5.35128 17.1639 5.28482 16.7593C5.21835 16.3548 5.29892 15.9408 5.51332 15.5853L8.96301 9.92326C9.17919 9.56827 9.51703 9.29401 9.92044 9.14604C10.3238 8.99806 10.7685 8.98527 11.1807 9.10978L14.6626 10.1603C15.1251 9.83707 15.6065 9.53538 16.1031 9.26242C16.5827 9.00742 17.0755 8.77577 17.5797 8.56926L18.353 5.18963C18.4451 4.78953 18.6787 4.43126 19.0152 4.17422C19.3516 3.91717 19.7707 3.7768 20.203 3.77637H27.1024C27.5346 3.7768 27.9537 3.91717 28.2901 4.17422C28.6266 4.43126 28.8602 4.78953 28.9523 5.18963L29.7332 8.57105C30.7617 8.99826 31.7369 9.53249 32.6408 10.1639L36.1246 9.11338C36.5365 8.98932 36.9808 9.00234 37.3838 9.1503C37.7868 9.29825 38.1243 9.57224 38.3404 9.92686L41.7901 15.5889C42.2298 16.3198 42.0782 17.2446 41.4243 17.8138L38.7233 20.1483C38.8461 21.2058 38.8461 22.2729 38.7233 23.3304L41.4243 25.6649C42.0782 26.236 42.2298 27.159 41.7901 27.8899L38.3404 33.5519C38.1242 33.9069 37.7864 34.1812 37.383 34.3291C36.9796 34.4771 36.5349 34.4899 36.1227 34.3654L32.6408 33.3149C31.737 33.9458 30.7617 34.4794 29.7332 34.9059L28.9523 38.2802C28.8599 38.6799 28.6261 39.0378 28.2896 39.2945C27.9532 39.5512 27.5343 39.6913 27.1024 39.6916ZM15.3506 29.3283L16.9049 30.4057C17.2556 30.65 17.6195 30.8744 17.9986 31.0791C18.3549 31.2749 18.7188 31.4509 19.096 31.6107L20.8645 32.3452L21.7307 36.1001H25.5784L26.4446 32.3434L28.2131 31.6089C28.9845 31.2857 29.7181 30.8852 30.3985 30.4129L31.9528 29.3355L35.8233 30.5027L37.7471 27.3458L34.7467 24.7545L34.9589 22.9372C35.0537 22.1416 35.0537 21.3389 34.9589 20.5452L34.7467 18.7279L37.749 16.1312L35.8233 12.9725L31.9547 14.1397L30.3985 13.0623C29.7177 12.5876 28.985 12.1837 28.2131 11.8573L26.4446 11.1228L25.5784 7.36789H21.7307L20.8588 11.1246L19.096 11.8573C18.323 12.178 17.5901 12.5792 16.9106 13.0533L15.3544 14.1307L11.4877 12.9635L9.56008 16.1312L12.5606 18.7189L12.3483 20.538C12.2535 21.3335 12.2535 22.1362 12.3483 22.93L12.5606 24.7473L9.56008 27.3386L11.4839 30.4955L15.3506 29.3283V29.3283ZM23.6451 28.917C21.6343 28.917 19.7058 28.1603 18.284 26.8132C16.8621 25.4661 16.0633 23.6391 16.0633 21.734C16.0633 19.8289 16.8621 18.0019 18.284 16.6548C19.7058 15.3077 21.6343 14.5509 23.6451 14.5509C25.6559 14.5509 27.5843 15.3077 29.0062 16.6548C30.428 18.0019 31.2268 19.8289 31.2268 21.734C31.2268 23.6391 30.428 25.4661 29.0062 26.8132C27.5843 28.1603 25.6559 28.917 23.6451 28.917ZM23.6451 18.1425C22.9027 18.1432 22.177 18.3504 21.5578 18.7383C20.9386 19.1263 20.4533 19.6779 20.162 20.3248C19.8708 20.9717 19.7864 21.6854 19.9194 22.3773C20.0523 23.0693 20.3968 23.709 20.91 24.2171C21.4233 24.7252 22.0827 25.0794 22.8065 25.2357C23.5302 25.392 24.2865 25.3435 24.9815 25.0963C25.6764 24.8491 26.2795 24.414 26.7158 23.845C27.1521 23.276 27.4025 22.5982 27.436 21.8956V22.6139V21.734C27.436 20.7815 27.0366 19.8679 26.3256 19.1944C25.6147 18.5209 24.6505 18.1425 23.6451 18.1425Z" fill="white"/>
</svg>
