<svg width="22" height="22" viewBox="0 0 22 22" fill="none" xmlns="http://www.w3.org/2000/svg">
<path d="M7.01718 3.0127C7.1526 3.0127 7.26979 3.06217 7.36874 3.16113C7.4677 3.26009 7.51718 3.37728 7.51718 3.5127C7.51718 3.64811 7.4677 3.7653 7.36874 3.86426C7.26979 3.96322 7.1526 4.0127 7.01718 4.0127H3.01718C2.88176 4.0127 2.76458 4.06217 2.66562 4.16113C2.56666 4.26009 2.51718 4.37728 2.51718 4.5127V13.5127C2.51718 13.6481 2.56666 13.7653 2.66562 13.8643C2.76458 13.9632 2.88176 14.0127 3.01718 14.0127H12.0172C12.1526 14.0127 12.2698 13.9632 12.3687 13.8643C12.4677 13.7653 12.5172 13.6481 12.5172 13.5127V9.5127C12.5172 9.37728 12.5667 9.26009 12.6656 9.16113C12.7646 9.06217 12.8818 9.0127 13.0172 9.0127C13.1526 9.0127 13.2698 9.06217 13.3687 9.16113C13.4677 9.26009 13.5172 9.37728 13.5172 9.5127V13.5127C13.5172 13.7158 13.4755 13.9085 13.3922 14.0908C13.3141 14.2679 13.2047 14.4268 13.0641 14.5674C12.9286 14.7028 12.7698 14.8122 12.5875 14.8955C12.4104 14.9736 12.2203 15.0127 12.0172 15.0127H3.01718C2.81926 15.0127 2.62916 14.9736 2.44687 14.8955C2.26458 14.8122 2.10312 14.7028 1.96249 14.5674C1.82708 14.4268 1.7177 14.2653 1.63437 14.083C1.55624 13.9007 1.51718 13.7106 1.51718 13.5127V4.5127C1.51718 4.30957 1.55624 4.11947 1.63437 3.94238C1.7177 3.76009 1.82708 3.60124 1.96249 3.46582C2.10312 3.3252 2.26197 3.21582 2.43906 3.1377C2.62135 3.05436 2.81406 3.0127 3.01718 3.0127H7.01718ZM13.5172 1.0127C13.788 1.0127 14.0432 1.06738 14.2828 1.17676C14.5276 1.28092 14.7411 1.42415 14.9234 1.60645C15.1057 1.78874 15.249 2.00228 15.3531 2.24707C15.4625 2.48665 15.5172 2.74186 15.5172 3.0127C15.5172 3.27832 15.4651 3.53353 15.3609 3.77832C15.262 4.02311 15.1187 4.23926 14.9312 4.42676L8.98593 10.3721C8.95468 10.4033 8.86093 10.4476 8.70468 10.5049C8.55364 10.557 8.37135 10.6143 8.15781 10.6768C7.94426 10.7393 7.71249 10.8044 7.46249 10.8721C7.21249 10.9398 6.97291 10.9997 6.74374 11.0518C6.51979 11.1038 6.32187 11.1481 6.14999 11.1846C5.97812 11.2158 5.86093 11.2314 5.79843 11.2314C5.66301 11.2314 5.54583 11.182 5.44687 11.083C5.34791 10.984 5.29843 10.8669 5.29843 10.7314C5.29843 10.6689 5.31406 10.5518 5.34531 10.3799C5.38176 10.208 5.42604 10.0101 5.47812 9.78613C5.53541 9.55697 5.59531 9.31738 5.65781 9.06738C5.72551 8.81738 5.79062 8.58561 5.85312 8.37207C5.91562 8.15332 5.97291 7.96842 6.02499 7.81738C6.08229 7.66634 6.12656 7.5752 6.15781 7.54395L12.1031 1.59863C12.2906 1.41113 12.5068 1.2679 12.7516 1.16895C12.9963 1.06478 13.2516 1.0127 13.5172 1.0127ZM13.5172 2.02051C13.387 2.02051 13.2594 2.04655 13.1344 2.09863C13.0094 2.14551 12.9026 2.21322 12.8141 2.30176L6.96249 8.15332L6.48593 10.0439L8.37656 9.56738L14.2281 3.71582C14.3167 3.62728 14.387 3.52051 14.4391 3.39551C14.4911 3.27051 14.5172 3.1429 14.5172 3.0127C14.5172 2.87728 14.4911 2.74967 14.4391 2.62988C14.387 2.50488 14.3141 2.39811 14.2203 2.30957C14.1318 2.22103 14.025 2.15072 13.9 2.09863C13.7802 2.04655 13.6526 2.02051 13.5172 2.02051Z" fill="#424242"/>
</svg>
